<svg xmlns="http://www.w3.org/2000/svg" width="375" viewBox="0 0 375 375" height="375" version="1.0"><path fill="#563D7C" d="M 0 326.644531 C 0 353.347656 21.648438 375 48.351562 375 L 326.644531 375 C 353.347656 375 375 353.347656 375 326.644531 L 375 48.355469 C 375 21.644531 353.347656 0 326.644531 0 L 48.351562 0 C 21.644531 0 0 21.648438 0 48.351562 Z M 0 326.644531"/><path fill="#FFF" d="M 155.507812 165.878906 L 155.507812 112.769531 L 202.25 112.769531 C 206.703125 112.769531 210.996094 113.140625 215.125 113.882812 C 219.257812 114.625 222.921875 115.949219 226.097656 117.859375 C 229.277344 119.765625 231.828125 122.417969 233.730469 125.808594 C 235.636719 129.199219 236.585938 133.546875 236.585938 138.847656 C 236.585938 148.386719 233.730469 155.273438 228.003906 159.519531 C 222.289062 163.753906 214.964844 165.878906 206.058594 165.878906 Z M 105.578125 73.972656 L 105.578125 301.023438 L 215.609375 301.023438 C 225.777344 301.023438 235.695312 299.75 245.332031 297.203125 C 254.984375 294.667969 263.570312 290.742188 271.097656 285.4375 C 278.628906 280.136719 284.605469 273.308594 289.058594 264.929688 C 293.511719 256.550781 295.738281 246.648438 295.738281 235.195312 C 295.738281 221 292.292969 208.855469 285.410156 198.792969 C 278.511719 188.714844 268.082031 181.667969 254.078125 177.640625 C 264.257812 172.761719 271.949219 166.507812 277.132812 158.875 C 282.332031 151.246094 284.925781 141.707031 284.925781 130.257812 C 284.925781 119.660156 283.183594 110.757812 279.683594 103.546875 C 276.179688 96.339844 271.261719 90.5625 264.902344 86.21875 C 258.53125 81.871094 250.898438 78.742188 242.007812 76.835938 C 233.101562 74.929688 223.242188 73.972656 212.429688 73.972656 Z M 155.507812 262.234375 L 155.507812 199.90625 L 209.882812 199.90625 C 220.691406 199.90625 229.378906 202.398438 235.957031 207.378906 C 242.535156 212.359375 245.816406 220.679688 245.816406 232.339844 C 245.816406 238.273438 244.804688 243.148438 242.796875 246.972656 C 240.777344 250.78125 238.082031 253.800781 234.683594 256.023438 C 231.300781 258.253906 227.371094 259.847656 222.921875 260.800781 C 218.46875 261.753906 213.808594 262.234375 208.929688 262.234375 Z M 155.507812 262.234375"/></svg>