<svg xmlns="http://www.w3.org/2000/svg" width="375" viewBox="0 0 375 375" height="375" version="1.0"><path fill="#364548" d="M 195.511719 143.730469 L 233.667969 143.730469 L 233.667969 182.726562 L 252.960938 182.726562 C 261.878906 182.726562 271.027344 181.136719 279.476562 178.277344 C 283.613281 176.875 288.269531 174.917969 292.359375 172.460938 C 286.976562 165.429688 284.222656 156.5625 283.414062 147.804688 C 282.308594 135.90625 284.71875 120.414062 292.765625 111.097656 L 296.777344 106.460938 L 301.554688 110.304688 C 313.585938 119.964844 323.714844 133.464844 325.488281 148.863281 C 339.972656 144.601562 356.980469 145.613281 369.757812 152.984375 L 375 156.003906 L 372.246094 161.382812 C 361.445312 182.460938 338.871094 188.976562 316.789062 187.828125 C 283.753906 270.078125 211.835938 309.011719 124.636719 309.011719 C 79.589844 309.011719 38.246094 292.179688 14.71875 252.222656 L 14.332031 251.570312 L 10.890625 244.601562 C 2.941406 227.007812 0.296875 207.753906 2.085938 188.496094 L 2.628906 182.726562 L 35.257812 182.726562 L 35.257812 143.730469 L 73.414062 143.730469 L 73.414062 105.589844 L 149.71875 105.589844 L 149.71875 67.453125 L 195.511719 67.453125 Z M 195.511719 143.730469"/><path fill="#22A0C8" d="M 319.125 158.164062 C 321.675781 138.285156 306.800781 122.683594 297.574219 115.265625 C 286.945312 127.554688 285.28125 159.765625 301.976562 173.332031 C 292.671875 181.589844 273.050781 189.085938 252.960938 189.085938 L 8.433594 189.085938 C 6.488281 210.054688 10.160156 229.355469 18.5625 245.875 L 21.347656 250.960938 C 23.105469 253.949219 25.035156 256.839844 27.105469 259.609375 C 37.15625 260.261719 46.429688 260.480469 54.910156 260.292969 C 71.578125 259.921875 85.175781 257.960938 95.476562 254.382812 C 97.03125 253.902344 98.667969 254.773438 99.148438 256.3125 C 99.617188 257.789062 98.839844 259.375 97.390625 259.921875 C 96.023438 260.402344 94.589844 260.839844 93.113281 261.257812 C 85.003906 263.578125 76.292969 265.132812 65.074219 265.832031 C 65.742188 265.847656 64.371094 265.925781 64.371094 265.925781 C 63.984375 265.957031 63.515625 266.003906 63.128906 266.019531 C 58.707031 266.265625 53.945312 266.3125 49.0625 266.3125 C 43.722656 266.3125 38.480469 266.222656 32.597656 265.910156 L 32.441406 266.003906 C 52.8125 288.898438 84.679688 302.617188 124.605469 302.617188 C 209.113281 302.617188 280.796875 265.164062 312.542969 181.09375 C 335.058594 183.410156 356.703125 177.65625 366.550781 158.445312 C 350.898438 149.4375 330.730469 152.316406 319.125 158.164062 Z M 319.125 158.164062"/><path fill="#37B1D9" d="M 319.125 158.164062 C 321.675781 138.285156 306.800781 122.683594 297.574219 115.265625 C 286.945312 127.554688 285.28125 159.765625 301.976562 173.332031 C 292.671875 181.589844 273.050781 189.085938 252.960938 189.085938 L 22.90625 189.085938 C 21.910156 221.191406 33.828125 245.550781 54.910156 260.292969 C 71.578125 259.921875 85.175781 257.960938 95.476562 254.382812 C 97.03125 253.902344 98.667969 254.773438 99.148438 256.3125 C 99.617188 257.789062 98.839844 259.375 97.390625 259.921875 C 96.023438 260.402344 94.589844 260.839844 93.113281 261.257812 C 85.003906 263.578125 75.542969 265.335938 64.324219 266.019531 C 64.324219 266.019531 64.0625 265.753906 64.046875 265.753906 C 92.800781 280.5 134.519531 280.453125 182.320312 262.082031 C 235.921875 241.488281 285.824219 202.277344 320.632812 157.402344 C 320.136719 157.667969 319.621094 157.914062 319.125 158.164062 Z M 319.125 158.164062"/><path fill="#1B81A5" d="M 8.886719 214.550781 C 10.410156 225.78125 13.691406 236.292969 18.5625 245.859375 L 21.347656 250.945312 C 23.105469 253.933594 25.035156 256.824219 27.105469 259.59375 C 37.15625 260.246094 46.429688 260.464844 54.910156 260.277344 C 71.578125 259.90625 85.175781 257.945312 95.476562 254.367188 C 97.03125 253.886719 98.667969 254.757812 99.148438 256.296875 C 99.617188 257.773438 98.839844 259.359375 97.390625 259.90625 C 96.023438 260.386719 94.589844 260.824219 93.113281 261.242188 C 85.003906 263.5625 75.589844 265.226562 64.371094 265.910156 C 63.984375 265.941406 63.3125 265.941406 62.925781 265.957031 C 58.507812 266.207031 53.792969 266.359375 48.90625 266.359375 C 43.570312 266.359375 38.121094 266.25 32.257812 265.957031 C 52.625 288.851562 84.679688 302.632812 124.621094 302.632812 C 196.976562 302.632812 259.917969 275.179688 296.453125 214.535156 L 8.886719 214.535156 Z M 8.886719 214.550781"/><path fill="#1D91B4" d="M 25.113281 214.550781 C 29.441406 234.273438 39.835938 249.75 54.925781 260.277344 C 71.59375 259.90625 85.191406 257.945312 95.492188 254.367188 C 97.046875 253.886719 98.683594 254.757812 99.164062 256.296875 C 99.632812 257.773438 98.855469 259.359375 97.40625 259.90625 C 96.039062 260.386719 94.605469 260.824219 93.128906 261.242188 C 85.019531 263.5625 75.421875 265.226562 64.1875 265.910156 C 92.941406 280.65625 134.53125 280.4375 182.335938 262.082031 C 211.261719 250.976562 239.097656 234.441406 264.070312 214.519531 L 25.113281 214.519531 Z M 25.113281 214.550781"/><path fill="#23A3C2" d="M 41.625 150.09375 L 74.6875 150.09375 L 74.6875 183.144531 L 41.625 183.144531 Z M 44.378906 152.84375 L 46.992188 152.84375 L 46.992188 180.390625 L 44.378906 180.390625 Z M 49.277344 152.84375 L 51.988281 152.84375 L 51.988281 180.390625 L 49.277344 180.390625 Z M 54.289062 152.84375 L 56.996094 152.84375 L 56.996094 180.390625 L 54.289062 180.390625 Z M 59.300781 152.84375 L 62.007812 152.84375 L 62.007812 180.390625 L 59.300781 180.390625 Z M 64.308594 152.84375 L 67.019531 152.84375 L 67.019531 180.390625 L 64.308594 180.390625 Z M 69.320312 152.84375 L 71.933594 152.84375 L 71.933594 180.390625 L 69.320312 180.390625 Z M 79.777344 111.953125 L 112.84375 111.953125 L 112.84375 145.003906 L 79.761719 145.003906 Z M 82.53125 114.707031 L 85.144531 114.707031 L 85.144531 142.253906 L 82.53125 142.253906 Z M 87.433594 114.707031 L 90.140625 114.707031 L 90.140625 142.253906 L 87.433594 142.253906 Z M 92.441406 114.707031 L 95.152344 114.707031 L 95.152344 142.253906 L 92.441406 142.253906 Z M 97.453125 114.707031 L 100.160156 114.707031 L 100.160156 142.253906 L 97.453125 142.253906 Z M 102.464844 114.707031 L 105.171875 114.707031 L 105.171875 142.253906 L 102.464844 142.253906 Z M 107.472656 114.707031 L 110.089844 114.707031 L 110.089844 142.253906 L 107.472656 142.253906 Z M 107.472656 114.707031"/><path fill="#34BBDE" d="M 79.777344 150.09375 L 112.84375 150.09375 L 112.84375 183.144531 L 79.761719 183.144531 Z M 82.53125 152.84375 L 85.144531 152.84375 L 85.144531 180.390625 L 82.53125 180.390625 Z M 87.433594 152.84375 L 90.140625 152.84375 L 90.140625 180.390625 L 87.433594 180.390625 Z M 92.441406 152.84375 L 95.152344 152.84375 L 95.152344 180.390625 L 92.441406 180.390625 Z M 97.453125 152.84375 L 100.160156 152.84375 L 100.160156 180.390625 L 97.453125 180.390625 Z M 102.464844 152.84375 L 105.171875 152.84375 L 105.171875 180.390625 L 102.464844 180.390625 Z M 107.472656 152.84375 L 110.089844 152.84375 L 110.089844 180.390625 L 107.472656 180.390625 Z M 107.472656 152.84375"/><path fill="#23A3C2" d="M 117.929688 150.09375 L 150.996094 150.09375 L 150.996094 183.144531 L 117.929688 183.144531 Z M 120.683594 152.84375 L 123.296875 152.84375 L 123.296875 180.390625 L 120.683594 180.390625 Z M 125.585938 152.84375 L 128.292969 152.84375 L 128.292969 180.390625 L 125.585938 180.390625 Z M 130.597656 152.84375 L 133.304688 152.84375 L 133.304688 180.390625 L 130.597656 180.390625 Z M 135.605469 152.84375 L 138.3125 152.84375 L 138.3125 180.390625 L 135.605469 180.390625 Z M 140.617188 152.84375 L 143.339844 152.84375 L 143.339844 180.390625 L 140.617188 180.390625 Z M 145.628906 152.84375 L 148.242188 152.84375 L 148.242188 180.390625 L 145.628906 180.390625 Z M 145.628906 152.84375"/><path fill="#34BBDE" d="M 117.929688 111.953125 L 150.996094 111.953125 L 150.996094 145.003906 L 117.929688 145.003906 Z M 120.683594 114.707031 L 123.296875 114.707031 L 123.296875 142.253906 L 120.683594 142.253906 Z M 125.585938 114.707031 L 128.292969 114.707031 L 128.292969 142.253906 L 125.585938 142.253906 Z M 130.597656 114.707031 L 133.304688 114.707031 L 133.304688 142.253906 L 130.597656 142.253906 Z M 135.605469 114.707031 L 138.3125 114.707031 L 138.3125 142.253906 L 135.605469 142.253906 Z M 140.617188 114.707031 L 143.339844 114.707031 L 143.339844 142.253906 L 140.617188 142.253906 Z M 145.628906 114.707031 L 148.242188 114.707031 L 148.242188 142.253906 L 145.628906 142.253906 Z M 156.085938 150.09375 L 189.148438 150.09375 L 189.148438 183.144531 L 156.085938 183.144531 Z M 158.839844 152.84375 L 161.453125 152.84375 L 161.453125 180.390625 L 158.839844 180.390625 Z M 163.738281 152.84375 L 166.445312 152.84375 L 166.445312 180.390625 L 163.738281 180.390625 Z M 168.75 152.84375 L 171.457031 152.84375 L 171.457031 180.390625 L 168.75 180.390625 Z M 173.761719 152.84375 L 176.46875 152.84375 L 176.46875 180.390625 L 173.761719 180.390625 Z M 178.769531 152.84375 L 181.476562 152.84375 L 181.476562 180.390625 L 178.769531 180.390625 Z M 183.78125 152.84375 L 186.394531 152.84375 L 186.394531 180.390625 L 183.78125 180.390625 Z M 183.78125 152.84375"/><path fill="#23A3C2" d="M 156.085938 111.953125 L 189.148438 111.953125 L 189.148438 145.003906 L 156.085938 145.003906 Z M 158.839844 114.707031 L 161.453125 114.707031 L 161.453125 142.253906 L 158.839844 142.253906 Z M 163.738281 114.707031 L 166.445312 114.707031 L 166.445312 142.253906 L 163.738281 142.253906 Z M 168.75 114.707031 L 171.457031 114.707031 L 171.457031 142.253906 L 168.75 142.253906 Z M 173.761719 114.707031 L 176.46875 114.707031 L 176.46875 142.253906 L 173.761719 142.253906 Z M 178.769531 114.707031 L 181.476562 114.707031 L 181.476562 142.253906 L 178.769531 142.253906 Z M 183.78125 114.707031 L 186.394531 114.707031 L 186.394531 142.253906 L 183.78125 142.253906 Z M 183.78125 114.707031"/><path fill="#34BBDE" d="M 156.085938 73.8125 L 189.148438 73.8125 L 189.148438 106.867188 L 156.085938 106.867188 Z M 158.839844 76.566406 L 161.453125 76.566406 L 161.453125 104.113281 L 158.839844 104.113281 Z M 163.738281 76.566406 L 166.445312 76.566406 L 166.445312 104.113281 L 163.738281 104.113281 Z M 168.75 76.566406 L 171.457031 76.566406 L 171.457031 104.113281 L 168.75 104.113281 Z M 173.761719 76.566406 L 176.46875 76.566406 L 176.46875 104.113281 L 173.761719 104.113281 Z M 178.769531 76.566406 L 181.476562 76.566406 L 181.476562 104.113281 L 178.769531 104.113281 Z M 183.78125 76.566406 L 186.394531 76.566406 L 186.394531 104.113281 L 183.78125 104.113281 Z M 183.78125 76.566406"/><path fill="#23A3C2" d="M 194.238281 150.09375 L 227.304688 150.09375 L 227.304688 183.144531 L 194.238281 183.144531 Z M 196.992188 152.84375 L 199.605469 152.84375 L 199.605469 180.390625 L 196.992188 180.390625 Z M 201.894531 152.84375 L 204.601562 152.84375 L 204.601562 180.390625 L 201.894531 180.390625 Z M 206.902344 152.84375 L 209.609375 152.84375 L 209.609375 180.390625 L 206.902344 180.390625 Z M 211.914062 152.84375 L 214.621094 152.84375 L 214.621094 180.390625 L 211.914062 180.390625 Z M 216.925781 152.84375 L 219.632812 152.84375 L 219.632812 180.390625 L 216.925781 180.390625 Z M 221.933594 152.84375 L 224.546875 152.84375 L 224.546875 180.390625 L 221.933594 180.390625 Z M 221.933594 152.84375"/><path fill="#D3ECEC" d="M 110.773438 236.746094 C 115.8125 236.683594 119.953125 240.710938 120.015625 245.75 C 120.078125 250.789062 116.046875 254.929688 111.007812 254.992188 C 110.929688 254.992188 110.835938 254.992188 110.757812 254.992188 C 105.714844 254.929688 101.6875 250.789062 101.761719 245.75 C 101.839844 240.789062 105.824219 236.808594 110.773438 236.746094 Z M 110.773438 236.746094"/><path fill="#364548" d="M 110.773438 239.328125 C 111.613281 239.328125 112.40625 239.484375 113.136719 239.761719 C 111.863281 240.507812 111.425781 242.128906 112.171875 243.402344 C 112.65625 244.226562 113.527344 244.726562 114.476562 244.726562 C 115.488281 244.726562 116.359375 244.164062 116.808594 243.339844 C 118.195312 246.667969 116.609375 250.496094 113.277344 251.878906 C 109.949219 253.265625 106.121094 251.675781 104.734375 248.347656 C 103.351562 245.019531 104.9375 241.195312 108.269531 239.808594 C 109.0625 239.5 109.917969 239.328125 110.773438 239.328125 Z M 110.773438 239.328125"/><path fill="#BDD9D7" d="M 135.015625 302.445312 C 112.421875 291.730469 100.019531 277.15625 93.128906 261.257812 C 84.742188 263.652344 74.640625 265.179688 62.925781 265.847656 C 58.507812 266.097656 53.871094 266.222656 49 266.222656 C 43.382812 266.222656 37.453125 266.050781 31.246094 265.722656 C 51.972656 286.425781 77.457031 302.351562 124.652344 302.648438 C 128.121094 302.648438 131.578125 302.585938 135.015625 302.445312 Z M 135.015625 302.445312"/><path fill="#D3ECEC" d="M 101.515625 275.941406 C 98.386719 271.695312 95.351562 266.375 93.128906 261.257812 C 84.742188 263.652344 74.640625 265.195312 62.925781 265.847656 C 70.984375 270.21875 82.5 274.261719 101.515625 275.941406 Z M 101.515625 275.941406"/></svg>