<svg xmlns="http://www.w3.org/2000/svg" width="375" viewBox="0 0 375 375" height="375" version="1.0"><path fill="#DE4C36" d="M 365.699219 170.992188 L 203.992188 9.304688 C 194.691406 -0.0117188 179.585938 -0.0117188 170.269531 9.300781 L 136.683594 42.878906 L 179.28125 85.476562 C 189.179688 82.132812 200.535156 84.375 208.421875 92.265625 C 216.347656 100.207031 218.578125 111.65625 215.148438 121.585938 L 256.207031 162.644531 C 266.132812 159.21875 277.589844 161.429688 285.53125 169.375 C 296.613281 180.457031 296.613281 198.425781 285.53125 209.507812 C 274.4375 220.601562 256.480469 220.601562 245.386719 209.507812 C 237.035156 201.160156 234.984375 188.917969 239.207031 178.648438 L 200.925781 140.359375 L 200.910156 241.105469 C 203.617188 242.449219 206.164062 244.230469 208.421875 246.472656 C 219.503906 257.554688 219.503906 275.523438 208.421875 286.617188 C 197.339844 297.699219 179.355469 297.699219 168.285156 286.617188 C 157.203125 275.523438 157.203125 257.554688 168.285156 246.472656 C 171.019531 243.738281 174.191406 241.667969 177.574219 240.277344 L 177.574219 138.59375 C 174.191406 137.214844 171.035156 135.15625 168.285156 132.402344 C 159.882812 124.011719 157.871094 111.6875 162.167969 101.375 L 120.183594 59.378906 L 9.304688 170.253906 C -0.015625 179.574219 -0.015625 194.675781 9.304688 203.996094 L 171.007812 365.699219 C 180.324219 375 195.429688 375 204.746094 365.699219 L 365.699219 204.746094 C 375.015625 195.429688 375.015625 180.3125 365.699219 170.992188"/></svg>