<svg xmlns="http://www.w3.org/2000/svg" width="375" viewBox="0 0 375 375" height="375" version="1.0"><defs><clipPath id="a"><path d="M 42 91.703125 L 153 91.703125 L 153 282.953125 L 42 282.953125 Z M 42 91.703125"/></clipPath><clipPath id="b"><path d="M 41 91.703125 L 154 91.703125 L 154 282.953125 L 41 282.953125 Z M 41 91.703125"/></clipPath><clipPath id="c"><path d="M 127 91.703125 L 187 91.703125 L 187 282.953125 L 127 282.953125 Z M 127 91.703125"/></clipPath><clipPath id="d"><path d="M 127 91.703125 L 188 91.703125 L 188 282.953125 L 127 282.953125 Z M 127 91.703125"/></clipPath><clipPath id="e"><path d="M 160 91.703125 L 271 91.703125 L 271 282.953125 L 160 282.953125 Z M 160 91.703125"/></clipPath><clipPath id="f"><path d="M 245 91.703125 L 307 91.703125 L 307 282.953125 L 245 282.953125 Z M 245 91.703125"/></clipPath><clipPath id="g"><path d="M 244 91.703125 L 308 91.703125 L 308 282.953125 L 244 282.953125 Z M 244 91.703125"/></clipPath><clipPath id="h"><path d="M 0 194 L 68 194 L 68 282.953125 L 0 282.953125 Z M 0 194"/></clipPath><clipPath id="i"><path d="M 0 193 L 69 193 L 69 282.953125 L 0 282.953125 Z M 0 193"/></clipPath><clipPath id="j"><path d="M 278 194 L 375 194 L 375 282.953125 L 278 282.953125 Z M 278 194"/></clipPath><clipPath id="k"><path d="M 277 193 L 375 193 L 375 282.953125 L 277 282.953125 Z M 277 193"/></clipPath></defs><g clip-path="url(#a)"><path fill="#EB7077" d="M 92.777344 97.542969 C 94.128906 95.246094 95.890625 93.035156 98.421875 91.953125 C 99.460938 91.773438 100.496094 91.863281 101.535156 91.863281 L 152.664062 91.863281 C 151.171875 93.125 149.722656 94.433594 148.730469 96.148438 C 146.113281 100.429688 144.351562 105.207031 142.726562 109.988281 C 138.121094 124.414062 134.914062 139.246094 131.796875 154.078125 C 130.394531 160.796875 129.042969 167.558594 127.777344 174.277344 C 123.890625 196.277344 119.875 218.230469 114.859375 240.003906 C 112.46875 250.0625 110.027344 260.121094 106.324219 269.800781 C 104.605469 273.816406 102.9375 278.109375 99.640625 281.070312 C 98.871094 281.757812 98.105469 282.605469 97.019531 282.472656 L 51.855469 282.472656 C 48.785156 282.386719 45.761719 282.664062 42.6875 282.339844 C 44.722656 280.765625 46.527344 278.867188 47.703125 276.617188 C 51.089844 270.164062 53.210938 263.1875 55.246094 256.238281 C 58.40625 245.054688 60.933594 233.742188 63.328125 222.425781 C 64.820312 214.988281 66.582031 207.59375 67.664062 200.109375 C 68.882812 191.769531 70.734375 183.519531 72.226562 175.222656 C 74.574219 163.003906 77.058594 150.789062 79.8125 138.660156 C 82.027344 129.191406 84.285156 119.769531 87.308594 110.527344 C 88.800781 106.066406 90.425781 101.648438 92.777344 97.542969 Z M 92.777344 97.542969"/></g><g clip-path="url(#b)"><path transform="matrix(1.46252 0 0 1.45992 .37 91.413)" fill="none" d="M 63.183158 4.199012 C 64.107292 2.625728 65.311872 1.111307 67.04262 0.370151 C 67.753081 0.247071 68.460872 0.308611 69.171333 0.308611 L 104.130842 0.308611 C 103.110555 1.172847 102.119648 2.069192 101.441238 3.243804 C 99.65173 6.17632 98.44715 9.448645 97.336053 12.723645 C 94.187053 22.604835 91.994238 32.764293 89.862854 42.923751 C 88.903998 47.525875 87.979864 52.157432 87.11449 56.759557 C 84.456937 71.82884 81.711244 86.866015 78.281799 101.780109 C 76.647203 108.669918 74.977886 115.559727 72.445866 122.189997 C 71.270666 124.940569 70.130189 127.881113 67.875943 129.909259 C 67.349774 130.380174 66.826276 130.960791 66.083764 130.869818 L 35.202731 130.869818 C 33.103398 130.810954 31.036116 131.000925 28.934111 130.778846 C 30.325654 129.700558 31.559613 128.40019 32.363557 126.859013 C 34.679233 122.438833 36.129536 117.660115 37.521079 112.900127 C 39.681843 105.23973 41.40992 97.491036 43.047187 89.739667 C 44.067473 84.645222 45.272053 79.580209 46.011894 74.453656 C 46.845217 68.741135 48.111227 63.090154 49.131514 57.407065 C 50.736729 49.03762 52.435427 40.67085 54.318416 32.362945 C 55.832821 25.87716 57.376606 19.423483 59.443888 13.092886 C 60.464175 10.037289 61.575272 7.011124 63.183158 4.199012 Z M 63.183158 4.199012" stroke="#EB7077" stroke-width=".094"/></g><g clip-path="url(#c)"><path fill="#F6A2AD" d="M 152.664062 91.863281 C 153.964844 91.863281 155.28125 91.820312 156.597656 91.863281 C 159.476562 93.394531 161.921875 95.832031 163.28125 98.851562 C 165.078125 102.277344 166.570312 105.882812 167.929688 109.582031 C 172.449219 123.511719 175.507812 137.847656 178.578125 152.140625 C 181.210938 164.941406 183.683594 177.792969 186.039062 190.6875 C 186.214844 191.363281 185.992188 192.308594 186.898438 192.488281 C 183.640625 209.441406 180.4375 226.4375 176.371094 243.257812 C 174.160156 252.3125 171.808594 261.332031 168.472656 270.078125 C 166.660156 274.457031 164.816406 279.230469 160.96875 282.339844 C 158.527344 282.882812 156.773438 281.027344 155.28125 279.363281 C 152.707031 276.078125 151.128906 272.195312 149.589844 268.328125 C 144.488281 254.429688 141.371094 239.960938 138.210938 225.535156 C 135.816406 214.308594 133.691406 202.992188 131.480469 191.722656 C 130.488281 185.996094 129.132812 180.363281 128.363281 174.636719 C 128.230469 174.546875 127.914062 174.367188 127.777344 174.277344 C 129.042969 167.558594 130.394531 160.796875 131.796875 154.078125 C 134.914062 139.246094 138.121094 124.414062 142.726562 109.988281 C 144.351562 105.207031 146.113281 100.429688 148.730469 96.148438 C 149.722656 94.433594 151.171875 93.125 152.664062 91.863281 Z M 152.664062 91.863281"/></g><g clip-path="url(#d)"><path transform="matrix(1.46252 0 0 1.45992 .37 91.413)" fill="none" d="M 104.130842 0.308611 C 105.020254 0.308611 105.92035 0.279179 106.820446 0.308611 C 108.788904 1.357468 110.460892 3.027076 111.390368 5.095356 C 112.618986 7.441905 113.639272 9.911533 114.568748 12.445377 C 117.658988 21.986759 119.750309 31.806409 121.849642 41.596626 C 123.649834 50.364744 125.340518 59.167646 126.951075 67.999979 C 127.071266 68.462867 126.919025 69.110375 127.538675 69.233455 C 125.311138 80.845793 123.120994 92.487563 120.340579 104.008929 C 118.828846 110.211095 117.220959 116.38918 114.940004 122.379969 C 113.700703 125.379377 112.440035 128.649026 109.809191 130.778846 C 108.139874 131.150762 106.940636 129.879826 105.92035 128.739998 C 104.160222 126.489773 103.081175 123.830173 102.028837 121.181276 C 98.540632 111.661299 96.409248 101.750677 94.248484 91.869487 C 92.611218 84.179658 91.158244 76.428289 89.64651 68.709027 C 88.9681 64.786519 88.041295 60.928226 87.515126 57.005717 C 87.424315 56.944177 87.207972 56.821097 87.11449 56.759557 C 87.979864 52.157432 88.903998 47.525875 89.862854 42.923751 C 91.994238 32.764293 94.187053 22.604835 97.336053 12.723645 C 98.44715 9.448645 99.65173 6.17632 101.441238 3.243804 C 102.119648 2.069192 103.110555 1.172847 104.130842 0.308611 Z M 104.130842 0.308611" stroke="#F6A2AD" stroke-width=".094"/></g><g clip-path="url(#e)"><path transform="matrix(1.46252 0 0 1.45992 .37 91.413)" fill="#EB7077" d="M 142.760177 5.651892 C 143.871275 3.519396 145.230767 1.143415 147.639925 0.340719 C 159.899391 0.279179 172.158856 0.308611 184.420993 0.308611 C 183.280515 1.451115 182.070594 2.59362 181.298702 4.0465 C 178.918923 8.306141 177.530051 13.031346 176.109128 17.69501 C 172.468681 30.540825 169.899268 43.664907 167.468743 56.788989 C 165.209155 69.728451 162.799996 82.667914 160.048961 95.545836 C 158.63071 102.031621 157.151027 108.479947 155.270708 114.880111 C 154.060787 118.829376 152.800118 122.810749 150.820976 126.489773 C 149.859449 128.151354 148.751023 129.981501 146.929464 130.840386 C 135.230889 130.931358 123.489579 130.840386 111.791004 130.869818 C 111.139303 130.869818 110.460892 130.869818 109.809191 130.781522 C 112.440035 128.651701 113.700703 125.379377 114.940004 122.379969 C 117.220959 116.38918 118.828846 110.211095 120.340579 104.011605 C 123.120994 92.487563 125.311138 80.845793 127.538675 69.233455 C 130.220266 54.257821 133.030061 39.27951 136.619761 24.488495 C 138.281065 18.096358 139.888951 11.610573 142.760177 5.651892 Z M 142.760177 5.651892" stroke="#EB7077" stroke-width=".094"/></g><g clip-path="url(#f)"><path fill="#F6A2AD" d="M 270.089844 91.863281 C 271.535156 91.863281 273.027344 91.820312 274.460938 91.863281 C 276.816406 93.082031 278.484375 95.15625 279.976562 97.273438 C 282.417969 101.152344 283.953125 105.523438 285.53125 109.804688 C 289.277344 121.304688 292.085938 133.117188 294.660156 144.925781 C 298.082031 160.839844 301.066406 176.847656 304.003906 192.851562 C 304.722656 196.683594 305.453125 200.558594 305.90625 204.4375 C 306.082031 204.617188 306.445312 204.976562 306.578125 205.113281 C 304.953125 207.367188 304.324219 210.074219 303.417969 212.640625 C 300.566406 221.792969 298.722656 231.261719 297.144531 240.691406 C 295.917969 248.078125 294.25 255.421875 291.953125 262.546875 C 290.226562 267.828125 288.152344 273.054688 284.714844 277.464844 C 283.089844 279.597656 280.882812 281.21875 278.4375 282.296875 C 274.695312 282.707031 272.488281 279.101562 270.671875 276.429688 C 266.929688 269.902344 264.898438 262.589844 262.730469 255.464844 C 255.59375 229.097656 250.945312 202.09375 245.925781 175.269531 C 245.882812 174.863281 245.648438 174.5 245.296875 174.320312 C 248.851562 155.160156 252.613281 136 257.933594 117.246094 C 260.011719 110.4375 262.042969 103.539062 265.527344 97.316406 C 266.652344 95.199219 268.421875 93.53125 270.089844 91.863281 Z M 270.089844 91.863281"/></g><g clip-path="url(#g)"><path transform="matrix(1.46252 0 0 1.45992 .37 91.413)" fill="none" d="M 184.420993 0.308611 C 185.409228 0.308611 186.429515 0.279179 187.409738 0.308611 C 189.020295 1.143415 190.160773 2.564188 191.181059 4.014392 C 192.850377 6.671316 193.900043 9.665373 194.97909 12.59789 C 197.54049 20.475015 199.460873 28.566192 201.221001 36.654694 C 203.560716 47.555308 205.601289 58.520137 207.609812 69.482291 C 208.101259 72.107108 208.600718 74.761356 208.910544 77.418281 C 209.030734 77.541361 209.279129 77.787521 209.36994 77.881169 C 208.258842 79.425021 207.828826 81.279249 207.209175 83.037154 C 205.259413 89.306211 203.998745 95.791996 202.919698 102.251024 C 202.081033 107.310686 200.940556 112.340915 199.370062 117.221308 C 198.189521 120.838792 196.771269 124.418817 194.42087 127.43963 C 193.309773 128.900537 191.80071 130.010933 190.128722 130.749414 C 187.569992 131.030358 186.06093 128.560729 184.818958 126.730582 C 182.260228 122.259564 180.871356 117.25074 179.389003 112.370347 C 174.509255 94.309684 171.330875 75.812888 167.898759 57.439173 C 167.869379 57.160905 167.709124 56.912069 167.468743 56.788989 C 169.899268 43.664907 172.471352 30.540825 176.109128 17.69501 C 177.530051 13.031346 178.918923 8.306141 181.301373 4.043824 C 182.070594 2.59362 183.280515 1.451115 184.420993 0.308611 Z M 184.420993 0.308611" stroke="#F6A2AD" stroke-width=".094"/></g><g clip-path="url(#h)"><path fill="#F6A2AD" d="M 0.414062 194.429688 C 1.589844 194.335938 2.765625 194.15625 3.984375 194.15625 L 53.210938 194.15625 C 55.289062 194.429688 57.457031 194.25 59.445312 195.148438 C 62.335938 196.320312 64.910156 198.304688 66.804688 200.785156 C 67.03125 200.648438 67.441406 200.289062 67.664062 200.109375 C 66.582031 207.59375 64.820312 214.988281 63.328125 222.425781 C 60.9375 233.742188 58.40625 245.054688 55.246094 256.238281 C 53.210938 263.1875 51.089844 270.164062 47.703125 276.617188 C 46.527344 278.867188 44.722656 280.765625 42.6875 282.339844 C 41.921875 282.472656 41.335938 281.933594 40.703125 281.523438 C 38.578125 280.179688 37.359375 277.832031 36.050781 275.714844 C 29.863281 261.65625 29.1875 246.089844 25.347656 231.394531 C 23.40625 224.046875 21.011719 216.746094 17.488281 209.980469 C 15.320312 205.925781 12.65625 202.046875 9.179688 198.9375 C 6.605469 196.863281 3.625 195.195312 0.417969 194.429688 Z M 0.414062 194.429688"/></g><g clip-path="url(#i)"><path transform="matrix(1.46252 0 0 1.45992 .37 91.413)" fill="none" d="M 0.0295502 70.563255 C 0.833493 70.49904 1.637437 70.37596 2.47076 70.37596 L 36.129536 70.37596 C 37.550459 70.563255 39.032813 70.440175 40.392305 71.055576 C 42.368776 71.858272 44.128904 73.217504 45.424294 74.916544 C 45.579207 74.822896 45.859652 74.576736 46.011894 74.453656 C 45.272053 79.580209 44.067473 84.645222 43.047187 89.739667 C 41.412591 97.491036 39.681843 105.23973 37.521079 112.900127 C 36.129536 117.660115 34.679233 122.438833 32.363557 126.859013 C 31.559613 128.40019 30.325654 129.700558 28.934111 130.778846 C 28.410614 130.869818 28.009977 130.500578 27.57729 130.219634 C 26.124317 129.29921 25.290994 127.691142 24.39624 126.240937 C 20.165522 116.611259 19.703455 105.948778 17.077953 95.882968 C 15.750512 90.850063 14.113246 85.849266 11.704087 81.215034 C 10.221733 78.437705 8.400174 75.78078 6.023067 73.65096 C 4.262939 72.230188 2.225036 71.087684 0.0322211 70.563255 Z M 0.0295502 70.563255" stroke="#F6A2AD" stroke-width=".094"/></g><g clip-path="url(#j)"><path fill="#EB7077" d="M 310.554688 199.117188 C 313.394531 195.914062 317.648438 193.886719 321.933594 194.066406 L 358.964844 194.066406 C 364.113281 194.15625 369.304688 193.886719 374.453125 194.203125 C 372.917969 195.238281 371.074219 195.644531 369.453125 196.503906 C 363.804688 199.070312 358.964844 203.355469 355.894531 208.71875 C 350.980469 217.285156 349.253906 227.113281 347.804688 236.761719 C 346.375 246.222656 346.417969 256.003906 343.347656 265.203125 C 341.269531 271.65625 338.09375 278.152344 332.640625 282.386719 C 315.660156 282.558594 298.679688 282.429688 281.746094 282.472656 C 280.605469 282.472656 279.523438 282.515625 278.4375 282.296875 C 280.882812 281.21875 283.089844 279.597656 284.714844 277.464844 C 288.152344 273.054688 290.226562 267.828125 291.953125 262.546875 C 294.25 255.421875 295.917969 248.078125 297.144531 240.691406 C 298.722656 231.261719 300.566406 221.792969 303.417969 212.640625 C 304.324219 210.074219 304.953125 207.367188 306.578125 205.113281 C 307.9375 203.128906 308.832031 200.828125 310.554688 199.117188 Z M 310.554688 199.117188"/></g><g clip-path="url(#k)"><path transform="matrix(1.46252 0 0 1.45992 .37 91.413)" fill="none" d="M 212.088923 73.77404 C 214.030673 71.580004 216.939292 70.19134 219.869277 70.31442 L 245.18948 70.31442 C 248.709736 70.37596 252.259373 70.19134 255.779629 70.408067 C 254.729962 71.117116 253.469294 71.395384 252.360867 71.984028 C 248.498735 73.741932 245.18948 76.677125 243.090147 80.350797 C 239.730145 86.218506 238.549604 92.950451 237.558698 99.559317 C 236.581145 106.03975 236.610525 112.739588 234.511192 119.040753 C 233.090269 123.460933 230.918821 127.910545 227.190235 130.810954 C 215.5798 130.928683 203.969365 130.840386 192.390981 130.869818 C 191.611076 130.869818 190.871234 130.899251 190.128722 130.749414 C 191.80071 130.010933 193.309773 128.900537 194.42087 127.43963 C 196.771269 124.418817 198.189521 120.838792 199.370062 117.221308 C 200.940556 112.340915 202.081033 107.310686 202.919698 102.251024 C 203.998745 95.791996 205.259413 89.306211 207.209175 83.037154 C 207.828826 81.279249 208.258842 79.425021 209.36994 77.881169 C 210.299415 76.521937 210.911053 74.945976 212.088923 73.77404 Z M 212.088923 73.77404" stroke="#EB7077" stroke-width=".094"/></g></svg>