<svg xmlns="http://www.w3.org/2000/svg" width="375" viewBox="0 0 375 375" height="375" version="1.0"><defs><clipPath id="a"><path d="M 18.75 0 L 356.25 0 L 356.25 374.25 L 18.75 374.25 Z M 18.75 0"/></clipPath></defs><g clip-path="url(#a)"><path fill="#5D4037" d="M 356.011719 124.4375 C 356.011719 316.242188 187.5 374.25 187.5 374.25 C 187.5 374.25 18.988281 316.242188 18.988281 124.4375 C 18.988281 101.046875 20.859375 81.398438 22.730469 65.492188 C 25.539062 42.101562 41.457031 23.390625 63.925781 17.777344 C 92.945312 9.355469 138.820312 0 187.5 0 C 236.179688 0 282.054688 9.355469 312.011719 17.777344 C 334.480469 23.390625 350.394531 43.039062 353.203125 65.492188 C 354.140625 81.398438 356.011719 101.984375 356.011719 124.4375 Z M 356.011719 124.4375"/><path fill="#4CAF50" d="M 187.5 28.070312 C 233.371094 28.070312 276.4375 37.425781 304.523438 44.910156 C 315.757812 47.71875 323.246094 57.074219 325.117188 69.234375 C 326.992188 87.011719 327.925781 105.726562 327.925781 124.4375 C 327.925781 270.394531 220.265625 329.339844 187.5 343.375 C 154.734375 328.40625 47.074219 269.460938 47.074219 124.4375 C 47.074219 105.726562 48.007812 87.011719 49.882812 69.234375 C 50.816406 57.074219 59.242188 47.71875 70.476562 44.910156 C 98.5625 37.425781 141.628906 28.070312 187.5 28.070312 M 187.5 0 C 138.820312 0 92.945312 9.355469 62.988281 17.777344 C 41.457031 23.390625 24.605469 43.039062 22.730469 65.492188 C 20.859375 81.398438 18.988281 101.984375 18.988281 124.4375 C 18.988281 316.242188 187.5 374.25 187.5 374.25 C 187.5 374.25 356.011719 316.242188 356.011719 124.4375 C 356.011719 101.046875 354.140625 81.398438 352.269531 65.492188 C 349.460938 42.101562 333.542969 23.390625 311.074219 17.777344 C 282.054688 9.355469 236.179688 0 187.5 0 Z M 187.5 0"/></g><path fill="#DCEDC8" d="M 178.136719 224.550781 L 196.863281 224.550781 L 196.863281 299.398438 L 178.136719 299.398438 Z M 178.136719 224.550781"/><path fill="#4CAF50" d="M 187.5 56.136719 C 187.5 56.136719 131.328125 102.917969 131.328125 177.769531 C 131.328125 226.421875 162.222656 257.296875 178.136719 271.332031 L 187.5 243.261719 L 196.863281 271.332031 C 212.777344 257.296875 243.671875 226.421875 243.671875 177.769531 C 243.671875 102.917969 187.5 56.136719 187.5 56.136719 Z M 187.5 56.136719"/><path fill="#81C784" d="M 187.5 56.136719 C 187.5 56.136719 131.328125 102.917969 131.328125 177.769531 C 131.328125 226.421875 162.222656 257.296875 178.136719 271.332031 L 187.5 243.261719 Z M 187.5 56.136719"/></svg>