<svg xmlns="http://www.w3.org/2000/svg" width="375" viewBox="0 0 375 375" height="375" version="1.0"><path fill="#A5DBE8" d="M 121.550781 287.722656 C 124.546875 286.390625 127.578125 285.160156 130.640625 284.003906 C 134.097656 282.714844 137.582031 281.484375 141.113281 280.429688 C 145.511719 279.097656 149.941406 277.910156 154.4375 276.941406 C 160.488281 275.667969 166.625 274.714844 172.792969 274.117188 C 169.335938 285 165.496094 295.824219 161.351562 306.589844 C 161.542969 308.671875 161.628906 310.765625 161.691406 312.859375 C 170.039062 311.21875 178.667969 310.339844 187.5 310.339844 C 196.332031 310.339844 204.960938 311.21875 213.308594 312.859375 C 213.367188 310.765625 213.457031 308.671875 213.648438 306.589844 C 209.488281 295.824219 205.664062 285 202.207031 274.117188 C 208.375 274.714844 214.511719 275.667969 220.5625 276.941406 C 225.058594 277.910156 229.480469 279.097656 233.875 280.429688 C 237.421875 281.484375 240.90625 282.714844 244.363281 284.003906 C 247.425781 285.160156 250.457031 286.390625 253.445312 287.722656 C 274.703125 297.1875 294.066406 311.21875 309.945312 329.429688 C 349.761719 295.046875 375 244.234375 375 187.5 C 375 83.945312 291.050781 0 187.5 0 C 83.945312 0 0 83.945312 0 187.5 C 0 244.234375 25.234375 295.046875 65.050781 329.429688 C 80.933594 311.21875 100.304688 297.1875 121.550781 287.722656"/><path fill="#525353" d="M 253.445312 287.722656 L 265.09375 327.742188 L 268.386719 327.90625 C 270.542969 327.90625 272.050781 328.460938 272.050781 330.601562 C 272.050781 334.175781 272.226562 338.171875 272.5625 341.660156 C 275.464844 344.136719 278.992188 346.902344 281.675781 349.597656 C 291.738281 343.753906 301.199219 336.988281 309.945312 329.429688 C 294.066406 311.21875 274.703125 297.1875 253.449219 287.722656"/><path fill="#525353" d="M 230.699219 287.3125 L 244.363281 284.003906 C 240.90625 282.714844 237.421875 281.484375 233.875 280.429688 C 229.480469 279.097656 225.058594 277.910156 220.5625 276.941406 C 214.511719 275.667969 208.375 274.714844 202.207031 274.117188 C 205.664062 285 209.488281 295.824219 213.648438 306.589844 C 213.457031 308.671875 213.367188 310.765625 213.3125 312.859375 C 222.992188 314.78125 232.515625 318.089844 241.316406 321.988281 L 230.699219 287.3125"/><path d="M 93.320312 349.597656 C 95.496094 350.875 97.695312 352.117188 99.929688 353.289062 C 100.714844 349.539062 101.964844 344.324219 102.34375 340.457031 C 99.441406 342.917969 96 346.902344 93.320312 349.601562"/><path d="M 241.097656 321.648438 C 232.292969 317.753906 222.992188 314.78125 213.308594 312.859375 C 204.960938 311.21875 196.332031 310.339844 187.5 310.339844 C 178.667969 310.339844 170.039062 311.21875 161.6875 312.859375 C 152.007812 314.78125 141.902344 317.664062 133.101562 321.5625 L 132.164062 327.390625 L 242.839844 327.390625 L 241.097656 321.648438"/><path fill="#525353" d="M 102 341.570312 C 102.34375 338.085938 102.589844 334.964844 102.589844 331.40625 C 102.589844 329.253906 104.058594 327.890625 106.203125 327.890625 L 109.71875 327.757812 L 121.550781 287.722656 C 100.304688 297.1875 80.933594 311.21875 65.050781 329.429688 C 73.804688 336.988281 83.261719 343.753906 93.320312 349.597656 C 96 346.902344 98.789062 344.324219 101.6875 341.851562"/><path d="M 274 348.691406 C 274.761719 352.5 274.9375 353.261719 275.066406 353.289062 C 277.308594 352.117188 279.507812 350.875 281.675781 349.597656 C 278.992188 346.902344 276.121094 344.238281 273.222656 341.777344 L 274 348.691406"/><path fill="#AA9678" d="M 241.097656 321.648438 L 242.839844 327.390625 L 265.472656 327.390625 L 253.445312 287.722656 C 250.457031 286.390625 247.425781 285.160156 244.363281 284.003906 L 230.699219 287.3125 L 241.097656 321.648438"/><path fill="#C4B6A1" d="M 109.921875 335.40625 C 110.039062 335.316406 110.160156 335.242188 110.277344 335.15625 L 109.9375 335.15625 C 109.933594 335.242188 109.925781 335.316406 109.921875 335.40625"/><path fill="#AA9678" d="M 265.0625 335.15625 L 264.726562 335.15625 C 264.84375 335.242188 264.960938 335.316406 265.078125 335.40625 C 265.078125 335.316406 265.0625 335.242188 265.0625 335.15625"/><path fill="#AA9678" d="M 264.667969 334.570312 L 187.339844 334.65625 L 187.5 375 C 216.285156 375 243.542969 368.496094 267.90625 356.910156 C 266.324219 349.921875 266.160156 342.390625 265.898438 335.066406 C 265.78125 334.980469 264.667969 334.570312 264.667969 334.570312"/><path fill="#C4B6A1" d="M 187.382812 334.832031 C 187.382812 334.832031 109.613281 334.730469 109.496094 334.820312 C 109.238281 342.144531 107.726562 350.84375 107.089844 356.910156 C 131.460938 368.496094 158.714844 375 187.5 375 L 187.542969 334.964844 L 187.382812 334.832031"/><path fill="#525353" d="M 241.1875 300.644531 C 240.613281 299.984375 240.027344 299.296875 239.429688 298.503906 C 240.042969 299.296875 240.613281 299.984375 241.1875 300.644531"/><path fill="#AA9678" d="M 245.492188 304.921875 C 245.492188 304.921875 245.507812 304.964844 245.535156 305.039062 C 245.507812 304.964844 245.492188 304.921875 245.492188 304.921875 C 245.492188 304.921875 243.601562 303.414062 241.1875 300.644531 C 243.601562 303.414062 245.492188 304.921875 245.492188 304.921875"/><path fill="#676A6A" d="M 310.121094 186.285156 C 310.136719 186.328125 310.152344 186.371094 310.152344 186.429688 C 310.164062 186.460938 310.164062 186.488281 310.164062 186.519531 L 310.164062 186.53125 C 310.253906 187.234375 310.296875 187.996094 310.3125 188.746094 C 310.3125 188.875 310.34375 189.007812 310.34375 189.15625 L 310.34375 189.257812 C 310.34375 189.402344 310.3125 189.550781 310.3125 189.695312 C 310.296875 190.429688 310.253906 191.160156 310.164062 191.863281 L 310.164062 191.878906 C 310.164062 191.921875 310.164062 191.953125 310.152344 191.980469 C 310.152344 192.039062 310.136719 192.097656 310.121094 192.15625 C 310.019531 192.917969 309.886719 193.667969 309.695312 194.371094 L 309.695312 194.382812 L 309.726562 194.355469 C 309.726562 194.339844 309.726562 194.324219 309.742188 194.324219 L 314.648438 189.183594 L 309.695312 184.011719 C 309.886719 184.746094 310.019531 185.492188 310.121094 186.285156"/><path d="M 310.121094 192.15625 C 310.136719 192.054688 310.164062 191.96875 310.164062 191.863281 C 310.253906 191.160156 310.296875 190.429688 310.3125 189.695312 C 310.3125 189.519531 310.34375 189.375 310.34375 189.199219 C 310.34375 189.050781 310.3125 188.90625 310.3125 188.746094 C 310.296875 188 310.253906 187.234375 310.164062 186.53125 C 310.164062 186.445312 310.136719 186.371094 310.121094 186.285156 C 310.019531 185.492188 309.886719 184.746094 309.695312 184.011719 C 309.640625 183.765625 309.550781 183.542969 309.460938 183.296875 C 309.023438 181.832031 308.421875 180.527344 307.703125 179.457031 C 307.601562 179.3125 307.5 179.179688 307.414062 179.03125 C 307.207031 178.769531 307.015625 178.519531 306.796875 178.285156 C 306.488281 177.949219 306.167969 177.640625 305.828125 177.390625 C 305.699219 177.289062 305.566406 177.214844 305.433594 177.128906 C 305.140625 176.9375 304.847656 176.777344 304.539062 176.660156 C 304.410156 176.601562 304.277344 176.542969 304.128906 176.5 C 303.691406 176.367188 303.25 176.277344 302.796875 176.277344 C 302.328125 176.277344 301.890625 176.367188 301.449219 176.5 C 301.316406 176.542969 301.1875 176.601562 301.054688 176.660156 C 300.730469 176.777344 300.4375 176.9375 300.144531 177.128906 C 300.015625 177.214844 299.882812 177.289062 299.75 177.378906 C 299.414062 177.640625 299.089844 177.949219 298.785156 178.285156 C 298.5625 178.519531 298.375 178.769531 298.183594 179.03125 C 298.082031 179.179688 297.976562 179.3125 297.875 179.457031 C 297.15625 180.542969 296.558594 181.832031 296.117188 183.296875 C 296.101562 183.355469 296.074219 183.414062 296.058594 183.472656 C 295.867188 184.144531 295.707031 184.863281 295.574219 185.582031 C 295.546875 185.816406 295.488281 186.019531 295.457031 186.253906 C 295.339844 187.0625 295.28125 187.910156 295.269531 188.789062 C 295.269531 188.90625 295.253906 189.023438 295.253906 189.140625 L 295.28125 189.140625 C 295.28125 196.289062 298.652344 202.074219 302.828125 202.074219 C 303.542969 202.074219 304.234375 201.882812 304.890625 201.5625 C 304.996094 201.503906 305.097656 201.460938 305.199219 201.402344 C 305.476562 201.238281 305.742188 201.066406 306.003906 200.859375 C 306.152344 200.742188 306.285156 200.609375 306.414062 200.480469 C 306.753906 200.171875 307.058594 199.820312 307.367188 199.425781 C 307.574219 199.160156 307.777344 198.882812 307.96875 198.574219 C 308.085938 198.382812 308.203125 198.164062 308.320312 197.960938 C 308.523438 197.578125 308.730469 197.167969 308.90625 196.730469 C 308.964844 196.582031 309.039062 196.4375 309.097656 196.273438 C 309.332031 195.675781 309.535156 195.03125 309.695312 194.371094 C 309.886719 193.667969 310.019531 192.921875 310.121094 192.160156 Z M 303.0625 187.484375 C 301.492188 187.484375 300.234375 185.300781 300.234375 182.636719 C 300.234375 179.957031 301.492188 177.789062 303.0625 177.789062 C 304.628906 177.789062 305.886719 179.957031 305.886719 182.636719 C 305.886719 185.300781 304.628906 187.484375 303.0625 187.484375 Z M 303.0625 187.484375"/><path fill="#FFF" d="M 303.0625 177.789062 C 301.492188 177.789062 300.234375 179.957031 300.234375 182.636719 C 300.234375 185.300781 301.492188 187.484375 303.0625 187.484375 C 304.628906 187.484375 305.886719 185.300781 305.886719 182.636719 C 305.886719 179.957031 304.628906 177.789062 303.0625 177.789062"/><path fill="#909393" d="M 296.117188 183.296875 C 296.558594 181.832031 297.15625 180.542969 297.875 179.457031 C 297.976562 179.3125 298.082031 179.179688 298.183594 179.03125 C 298.375 178.769531 298.5625 178.519531 298.785156 178.285156 C 299.089844 177.949219 299.414062 177.640625 299.75 177.378906 C 299.882812 177.289062 300.015625 177.214844 300.144531 177.128906 C 300.4375 176.9375 300.730469 176.777344 301.054688 176.660156 C 301.1875 176.601562 301.316406 176.542969 301.449219 176.5 C 301.890625 176.367188 302.328125 176.277344 302.796875 176.277344 C 303.25 176.277344 303.691406 176.367188 304.128906 176.5 C 304.277344 176.542969 304.410156 176.601562 304.539062 176.660156 C 304.847656 176.777344 305.140625 176.9375 305.433594 177.128906 C 305.566406 177.214844 305.699219 177.289062 305.828125 177.390625 C 306.167969 177.640625 306.488281 177.949219 306.796875 178.285156 C 307.015625 178.519531 307.207031 178.769531 307.414062 179.03125 C 307.5 179.179688 307.601562 179.3125 307.703125 179.457031 C 308.421875 180.527344 309.023438 181.832031 309.460938 183.296875 L 302.796875 152.722656 L 296.117188 183.296875"/><path d="M 214.304688 188.921875 C 214.292969 188.304688 214.261719 187.691406 214.1875 187.089844 L 214.1875 187.074219 C 214.117188 186.488281 214.011719 185.902344 213.894531 185.332031 C 213.882812 185.316406 213.882812 185.300781 213.882812 185.289062 C 213.75 184.714844 213.601562 184.175781 213.414062 183.632812 C 213.414062 183.617188 213.414062 183.601562 213.398438 183.589844 C 213.222656 183.046875 213.019531 182.519531 212.785156 181.992188 C 212.785156 181.992188 212.785156 181.976562 212.769531 181.964844 C 212.535156 181.449219 212.285156 180.9375 211.992188 180.4375 C 211.144531 178.945312 210.074219 177.570312 208.828125 176.394531 C 207.246094 174.886719 205.386719 173.671875 203.335938 172.820312 C 203.320312 172.820312 203.304688 172.808594 203.292969 172.808594 C 202.28125 172.398438 201.210938 172.074219 200.128906 171.855469 C 200.097656 171.839844 200.070312 171.839844 200.039062 171.839844 C 198.941406 171.621094 197.8125 171.503906 196.65625 171.503906 C 195.511719 171.503906 194.398438 171.621094 193.332031 171.824219 C 193.285156 171.839844 193.242188 171.839844 193.214844 171.855469 C 192.128906 172.058594 191.105469 172.382812 190.109375 172.777344 C 190.078125 172.777344 190.050781 172.792969 190.019531 172.808594 C 189.023438 173.21875 188.058594 173.714844 187.148438 174.300781 C 186.226562 174.886719 185.375 175.5625 184.585938 176.292969 L 184.570312 176.351562 L 184.496094 176.367188 C 183.238281 177.566406 182.152344 178.945312 181.289062 180.46875 C 181.289062 180.484375 181.273438 180.496094 181.261719 180.527344 C 180.996094 180.980469 180.761719 181.464844 180.542969 181.960938 C 180.511719 182.007812 180.484375 182.066406 180.46875 182.109375 C 180.265625 182.578125 180.089844 183.046875 179.925781 183.515625 C 179.898438 183.601562 179.855469 183.691406 179.824219 183.792969 C 179.691406 184.234375 179.574219 184.6875 179.472656 185.140625 C 179.445312 185.273438 179.398438 185.40625 179.371094 185.535156 C 179.269531 185.992188 179.210938 186.445312 179.152344 186.914062 C 179.136719 187.046875 179.105469 187.191406 179.09375 187.324219 C 179.019531 187.9375 178.988281 188.554688 178.988281 189.167969 C 178.988281 190.339844 179.105469 191.484375 179.328125 192.582031 C 179.328125 192.613281 179.328125 192.625 179.339844 192.65625 C 179.5625 193.753906 179.882812 194.824219 180.292969 195.835938 C 180.308594 195.847656 180.308594 195.863281 180.324219 195.878906 C 181.171875 197.945312 182.402344 199.804688 183.910156 201.386719 C 185.113281 202.644531 186.503906 203.714844 188.011719 204.578125 C 188.027344 204.578125 188.027344 204.578125 188.042969 204.59375 C 188.511719 204.859375 189.007812 205.09375 189.507812 205.3125 C 189.550781 205.339844 189.582031 205.355469 189.625 205.371094 C 190.09375 205.574219 190.574219 205.75 191.046875 205.914062 C 191.132812 205.941406 191.222656 205.984375 191.292969 206 C 191.75 206.148438 192.203125 206.265625 192.65625 206.367188 C 192.789062 206.394531 192.90625 206.441406 193.035156 206.46875 C 193.476562 206.558594 193.945312 206.617188 194.398438 206.675781 C 194.546875 206.6875 194.675781 206.734375 194.824219 206.746094 C 195.425781 206.804688 196.039062 206.835938 196.65625 206.835938 C 199.085938 206.835938 201.414062 206.335938 203.523438 205.445312 C 204.578125 205.003906 205.589844 204.460938 206.527344 203.816406 C 208.417969 202.558594 210.027344 200.933594 211.304688 199.042969 C 211.933594 198.105469 212.488281 197.109375 212.929688 196.054688 C 213.824219 193.929688 214.320312 191.617188 214.320312 189.167969 C 214.320312 189.125 214.304688 189.097656 214.304688 189.050781 Z M 196.65625 186.855469 C 192.992188 186.855469 190.019531 183.882812 190.019531 180.203125 C 190.019531 176.542969 192.992188 173.570312 196.65625 173.570312 C 200.316406 173.570312 203.289062 176.542969 203.289062 180.203125 C 203.289062 183.882812 200.316406 186.855469 196.65625 186.855469 Z M 196.65625 186.855469"/><path fill="#FFF" d="M 196.65625 173.570312 C 192.992188 173.570312 190.019531 176.542969 190.019531 180.203125 C 190.019531 183.882812 192.992188 186.855469 196.65625 186.855469 C 200.316406 186.855469 203.289062 183.882812 203.289062 180.203125 C 203.289062 176.542969 200.316406 173.570312 196.65625 173.570312"/><path fill="#BBBCBD" d="M 184.496094 176.367188 L 184.570312 176.351562 L 184.585938 176.292969 L 196.757812 139.089844 L 196.757812 130.28125 C 189.976562 128.890625 183.003906 128.128906 175.867188 128.128906 C 173.496094 128.128906 171.136719 128.230469 168.792969 128.390625 C 168.441406 128.414062 168.105469 128.433594 167.753906 128.460938 C 155.550781 129.386719 143.523438 132.570312 132.386719 137.652344 C 122.835938 142.011719 113.964844 147.757812 105.988281 154.570312 C 105.984375 154.570312 105.980469 154.570312 105.976562 154.585938 C 103.835938 156.402344 101.78125 158.320312 99.777344 160.28125 C 99.402344 160.648438 99.023438 161.015625 98.652344 161.394531 C 96.765625 163.285156 94.941406 165.261719 93.175781 167.285156 C 92.796875 167.722656 92.417969 168.164062 92.039062 168.617188 C 90.269531 170.699219 88.546875 172.835938 86.910156 175.035156 C 86.773438 175.222656 86.648438 175.414062 86.511719 175.589844 C 84.953125 177.714844 83.46875 179.898438 82.035156 182.109375 C 81.757812 182.546875 81.46875 182.972656 81.195312 183.414062 C 80.039062 185.242188 78.960938 187.132812 77.890625 189.023438 L 133.316406 189.023438 L 184.496094 176.367188"/><path fill="#E3DDDB" d="M 231.296875 172.191406 C 231.402344 170.742188 231.503906 169.277344 231.578125 167.828125 C 231.679688 165.863281 231.738281 163.902344 231.78125 161.921875 C 231.8125 160.398438 231.796875 158.875 231.796875 157.339844 C 231.796875 156.898438 231.8125 156.460938 231.796875 156.019531 C 231.765625 152.078125 231.605469 148.140625 231.371094 144.195312 L 231.328125 144.171875 C 231.328125 144.164062 231.328125 144.152344 231.3125 144.144531 C 231.300781 144.132812 231.238281 144.101562 231.195312 144.074219 C 231.152344 144.046875 231.109375 144.023438 231.019531 143.972656 C 230.300781 143.554688 228.515625 142.539062 226.917969 141.632812 C 226.890625 141.613281 226.84375 141.589844 226.816406 141.574219 C 226.40625 141.34375 226.023438 141.121094 225.671875 140.921875 C 225.660156 140.917969 225.660156 140.917969 225.644531 140.910156 C 225.351562 140.742188 225.085938 140.597656 224.851562 140.464844 C 224.808594 140.441406 224.734375 140.402344 224.691406 140.378906 C 224.441406 140.234375 224.238281 140.125 224.121094 140.0625 C 221.570312 138.742188 218.964844 137.519531 216.328125 136.402344 C 210.027344 133.742188 201.53125 131.40625 196.757812 130.28125 L 196.757812 139.089844 L 208.8125 176.351562 L 208.828125 176.394531 C 210.074219 177.566406 211.140625 178.945312 211.992188 180.4375 C 212.285156 180.9375 212.535156 181.449219 212.769531 181.960938 C 212.78125 181.976562 212.78125 181.992188 212.78125 181.992188 C 213.015625 182.519531 213.222656 183.046875 213.398438 183.589844 C 213.414062 183.601562 213.414062 183.617188 213.414062 183.632812 C 213.601562 184.175781 213.75 184.714844 213.882812 185.289062 C 213.882812 185.300781 213.882812 185.316406 213.894531 185.332031 C 214.011719 185.902344 214.117188 186.488281 214.1875 187.074219 L 214.1875 187.089844 C 214.261719 187.691406 214.292969 188.304688 214.304688 188.921875 L 214.351562 189.023438 L 229.117188 189.023438 C 230.113281 183.617188 230.816406 178.140625 231.253906 172.644531 C 231.269531 172.484375 231.285156 172.339844 231.296875 172.191406"/><path fill="#FCB03F" d="M 250.605469 159.007812 C 250.589844 159.023438 250.589844 159.039062 250.574219 159.050781 C 250.589844 159.039062 250.589844 159.023438 250.605469 159.007812"/><path fill="#909393" d="M 184.585938 176.292969 C 185.375 175.5625 186.226562 174.886719 187.148438 174.300781 C 188.054688 173.714844 189.023438 173.21875 190.019531 172.808594 C 190.046875 172.792969 190.078125 172.792969 190.105469 172.777344 C 191.101562 172.382812 192.128906 172.058594 193.210938 171.855469 C 193.242188 171.839844 193.285156 171.839844 193.328125 171.828125 C 194.398438 171.621094 195.511719 171.503906 196.65625 171.503906 C 197.8125 171.503906 198.941406 171.621094 200.039062 171.839844 C 200.066406 171.839844 200.097656 171.839844 200.125 171.855469 C 201.210938 172.074219 202.28125 172.398438 203.289062 172.808594 C 203.304688 172.808594 203.320312 172.824219 203.335938 172.824219 C 205.386719 173.671875 207.246094 174.886719 208.828125 176.398438 L 208.8125 176.351562 L 196.757812 139.089844 L 184.585938 176.292969"/><path fill="#676A6A" d="M 180.292969 195.835938 C 179.882812 194.824219 179.558594 193.753906 179.339844 192.65625 C 179.324219 192.625 179.324219 192.613281 179.324219 192.582031 C 179.105469 191.484375 178.988281 190.339844 178.988281 189.167969 C 178.988281 188.554688 179.019531 187.9375 179.089844 187.324219 C 179.105469 187.191406 179.136719 187.046875 179.148438 186.914062 C 179.207031 186.445312 179.265625 185.992188 179.371094 185.535156 C 179.398438 185.40625 179.441406 185.273438 179.472656 185.140625 C 179.574219 184.6875 179.691406 184.234375 179.824219 183.792969 C 179.851562 183.691406 179.898438 183.601562 179.925781 183.515625 C 180.085938 183.046875 180.261719 182.578125 180.46875 182.109375 C 180.484375 182.066406 180.511719 182.007812 180.542969 181.960938 C 180.761719 181.464844 180.996094 180.980469 181.257812 180.527344 C 181.273438 180.496094 181.289062 180.484375 181.289062 180.46875 C 182.152344 178.945312 183.238281 177.566406 184.496094 176.367188 L 133.316406 189.023438 L 133.21875 189.023438 L 183.910156 201.386719 C 182.402344 199.804688 181.171875 197.945312 180.324219 195.878906 C 180.308594 195.863281 180.308594 195.847656 180.292969 195.835938"/><path fill="#E3DDDB" d="M 295.457031 186.253906 C 295.488281 186.019531 295.546875 185.816406 295.574219 185.582031 C 295.707031 184.863281 295.867188 184.144531 296.058594 183.472656 C 296.074219 183.398438 296.089844 183.308594 296.117188 183.238281 L 302.796875 152.664062 L 302.78125 135.222656 C 297.332031 130.714844 291.488281 128.25 285.410156 128.25 C 277.71875 128.25 270.554688 132.496094 265.195312 137.738281 C 259.320312 143.476562 254.792969 150.703125 251.132812 157.984375 C 250.957031 158.320312 250.78125 158.640625 250.621094 158.980469 C 251.746094 159.960938 252.859375 160.941406 253.972656 161.953125 C 256.464844 164.238281 258.910156 166.582031 261.3125 168.953125 C 262.441406 170.066406 263.539062 171.195312 264.652344 172.324219 C 265.824219 173.511719 266.996094 174.710938 268.152344 175.925781 C 269.632812 177.480469 271.097656 179.046875 272.5625 180.644531 C 273.164062 181.316406 273.777344 181.976562 274.394531 182.652344 C 276.152344 184.597656 277.894531 186.546875 279.609375 188.523438 L 279.609375 188.539062 C 279.902344 188.832031 280.105469 189.050781 280.179688 189.140625 L 295.238281 189.140625 C 295.238281 189.023438 295.269531 188.90625 295.269531 188.789062 C 295.28125 187.910156 295.339844 187.058594 295.457031 186.253906"/><path fill="#E3DDDB" d="M 250.621094 159.050781 C 250.621094 159.039062 250.605469 159.023438 250.605469 159.007812 C 250.589844 159.023438 250.589844 159.039062 250.574219 159.050781 L 250.648438 159.125 C 250.636719 159.097656 250.636719 159.082031 250.621094 159.050781"/><path fill="#525353" d="M 68.8125 208.257812 C 68.855469 208.152344 68.902344 208.035156 68.945312 207.917969 C 69.914062 205.386719 70.976562 202.878906 72.09375 200.40625 C 72.402344 199.714844 72.726562 199.027344 73.046875 198.355469 C 73.960938 196.40625 74.929688 194.488281 75.929688 192.582031 C 76.335938 191.804688 76.734375 191.03125 77.15625 190.269531 C 77.390625 189.84375 77.652344 189.433594 77.890625 189.023438 C 78.960938 187.132812 80.039062 185.242188 81.195312 183.414062 C 81.46875 182.972656 81.753906 182.546875 82.035156 182.109375 C 83.464844 179.898438 84.953125 177.714844 86.511719 175.589844 C 86.648438 175.414062 86.773438 175.222656 86.910156 175.035156 C 88.546875 172.835938 90.269531 170.699219 92.039062 168.617188 C 92.417969 168.164062 92.792969 167.722656 93.175781 167.285156 C 94.941406 165.261719 96.765625 163.285156 98.652344 161.394531 C 99.023438 161.015625 99.402344 160.648438 99.777344 160.28125 C 101.78125 158.320312 103.832031 156.402344 105.976562 154.585938 C 105.980469 154.570312 105.984375 154.570312 105.988281 154.570312 C 114.414062 126.347656 141.613281 109.007812 172.117188 109.007812 C 184.394531 109.007812 196.597656 112.546875 207.054688 118.945312 C 217.792969 125.507812 225.101562 131.921875 230.785156 143.132812 C 230.816406 143.191406 230.84375 143.246094 230.875 143.300781 C 231.019531 143.585938 231.179688 143.859375 231.3125 144.144531 C 231.328125 144.152344 231.328125 144.164062 231.328125 144.171875 L 231.371094 144.195312 C 236.117188 147.128906 240.660156 150.4375 244.964844 154.070312 C 246.402344 155.289062 247.808594 156.53125 249.199219 157.820312 C 249.652344 158.230469 250.121094 158.628906 250.574219 159.050781 C 250.589844 159.039062 250.589844 159.023438 250.605469 159.007812 C 250.605469 158.992188 250.621094 158.980469 250.621094 158.980469 C 250.78125 158.65625 250.925781 158.335938 251.089844 158.011719 C 255.378906 130.894531 269.03125 116.101562 283.152344 116.101562 C 293.789062 116.101562 301.523438 122.445312 307.351562 139.519531 L 307.425781 139.703125 C 307.425781 139.710938 307.425781 139.714844 307.441406 139.722656 C 309.082031 141.515625 310.691406 143.488281 312.246094 145.652344 C 312.273438 145.691406 312.304688 145.730469 312.332031 145.773438 C 312.421875 146.019531 312.496094 146.277344 312.582031 146.527344 L 312.363281 145.632812 C 294.800781 93.65625 245.640625 56.238281 187.734375 56.238281 C 115.113281 56.238281 56.238281 115.113281 56.238281 187.734375 C 56.238281 202.058594 58.523438 215.84375 62.773438 228.660156 C 62.777344 228.648438 62.785156 228.617188 62.789062 228.589844 C 63.625 224.722656 64.625 220.882812 65.789062 217.074219 C 66.699219 214.101562 67.707031 211.171875 68.8125 208.257812"/><path fill="#FFF" d="M 314.324219 189.199219 L 309.742188 194.324219 C 309.726562 194.324219 309.726562 194.339844 309.726562 194.355469 C 309.550781 195.03125 309.332031 195.660156 309.097656 196.273438 C 309.039062 196.433594 308.964844 196.582031 308.90625 196.726562 C 308.714844 197.167969 308.523438 197.578125 308.320312 197.957031 C 308.203125 198.164062 308.085938 198.382812 307.96875 198.574219 C 307.777344 198.882812 307.574219 199.160156 307.367188 199.421875 C 307.058594 199.820312 306.753906 200.171875 306.414062 200.476562 C 306.285156 200.609375 306.152344 200.742188 306.003906 200.859375 C 305.742188 201.0625 305.476562 201.238281 305.199219 201.402344 C 305.097656 201.460938 304.996094 201.503906 304.890625 201.5625 C 304.234375 201.882812 303.542969 202.074219 302.828125 202.074219 C 298.652344 202.074219 295.28125 196.289062 295.28125 189.140625 L 280.136719 189.140625 C 280.136719 189.140625 280.136719 189.15625 280.152344 189.15625 C 282.964844 192.390625 285.71875 195.6875 288.441406 199.011719 C 288.484375 199.058594 288.515625 199.085938 288.542969 199.128906 C 291.195312 202.367188 293.804688 205.632812 296.394531 208.914062 C 296.511719 209.078125 296.644531 209.238281 296.777344 209.398438 C 299.222656 212.519531 301.640625 215.667969 304.042969 218.816406 C 304.277344 219.109375 304.511719 219.417969 304.746094 219.726562 C 307.28125 223.066406 309.800781 226.421875 312.289062 229.773438 L 312.347656 229.832031 C 316.667969 217.046875 319.085938 203.363281 319.246094 189.140625 L 314.984375 188.980469 L 314.324219 189.199219"/><path d="M 167.753906 128.460938 C 168.105469 128.433594 168.441406 128.414062 168.792969 128.390625 C 171.136719 128.230469 173.496094 128.128906 175.867188 128.128906 C 183.003906 128.128906 189.976562 128.890625 196.757812 130.28125 C 201.53125 131.40625 210.027344 133.742188 216.328125 136.402344 C 218.964844 137.519531 221.570312 138.742188 224.121094 140.0625 C 224.238281 140.125 224.441406 140.238281 224.691406 140.378906 C 224.734375 140.402344 224.808594 140.441406 224.851562 140.464844 C 225.085938 140.597656 225.351562 140.742188 225.644531 140.910156 C 225.660156 140.917969 225.660156 140.917969 225.671875 140.921875 C 226.023438 141.125 226.40625 141.34375 226.816406 141.574219 C 226.84375 141.589844 226.890625 141.613281 226.917969 141.632812 C 228.542969 142.550781 230.332031 143.578125 231.019531 143.972656 C 231.109375 144.023438 231.152344 144.046875 231.195312 144.074219 C 231.226562 144.09375 231.300781 144.136719 231.3125 144.144531 C 231.179688 143.859375 231.019531 143.585938 230.875 143.300781 C 230.84375 143.246094 230.816406 143.191406 230.785156 143.132812 C 225.101562 131.921875 216.355469 122.308594 205.632812 115.742188 C 195.175781 109.34375 182.960938 105.804688 170.683594 105.804688 C 140.1875 105.804688 114.414062 126.347656 105.988281 154.570312 C 113.964844 147.757812 122.835938 142.015625 132.386719 137.652344 C 143.523438 132.570312 155.550781 129.386719 167.753906 128.460938"/><path fill="#BBBCBD" d="M 312.332031 145.773438 C 312.304688 145.730469 312.273438 145.691406 312.246094 145.652344 C 310.691406 143.488281 309.082031 141.515625 307.441406 139.722656 C 307.425781 139.71875 307.425781 139.710938 307.425781 139.707031 C 307.425781 139.710938 307.425781 139.71875 307.441406 139.722656 C 307.425781 139.707031 307.410156 139.6875 307.398438 139.671875 C 306.648438 138.859375 305.886719 138.085938 305.125 137.351562 C 304.832031 137.074219 304.539062 136.832031 304.246094 136.566406 C 303.765625 136.128906 303.28125 135.675781 302.796875 135.273438 L 302.796875 152.722656 L 309.460938 183.308594 L 309.460938 183.296875 C 309.550781 183.542969 309.636719 183.765625 309.695312 184.011719 L 314.324219 189.199219 L 314.371094 189.140625 L 319.203125 189.140625 C 319.21875 188.6875 319.246094 188.246094 319.246094 187.792969 C 319.246094 173.363281 316.875 159.507812 312.582031 146.527344 C 312.496094 146.277344 312.421875 146.019531 312.332031 145.773438"/><path d="M 265.195312 137.738281 C 270.554688 132.496094 277.71875 128.25 285.410156 128.25 C 291.488281 128.25 297.332031 130.714844 302.78125 135.222656 C 302.78125 135.222656 302.796875 135.261719 302.796875 135.277344 L 302.796875 135.285156 L 302.796875 135.277344 C 303.28125 135.675781 303.765625 136.128906 304.246094 136.566406 C 304.539062 136.832031 304.832031 137.074219 305.125 137.351562 C 305.886719 138.085938 306.648438 138.863281 307.398438 139.671875 C 307.410156 139.6875 307.425781 139.707031 307.441406 139.722656 C 307.425781 139.71875 307.425781 139.710938 307.425781 139.707031 L 307.351562 139.519531 C 301.523438 122.445312 292.089844 111.351562 281.453125 111.351562 C 267.347656 111.351562 255.382812 130.894531 251.089844 158.011719 L 251.132812 157.984375 C 254.796875 150.703125 259.320312 143.476562 265.195312 137.738281"/><path d="M 246.121094 304.453125 C 246.121094 304.453125 244.21875 302.945312 241.816406 300.160156 C 241.246094 299.515625 240.660156 298.8125 240.058594 298.023438 C 239.605469 297.4375 239.136719 296.804688 238.679688 296.132812 C 238.375 295.679688 238.066406 295.210938 237.757812 294.726562 C 236.851562 293.289062 236.117188 291.53125 235.3125 289.804688 C 234.390625 287.78125 234.390625 286.449219 233.847656 284.574219 C 233.464844 283.242188 233.160156 281.835938 232.925781 280.386719 C 232.558594 278.203125 232.398438 275.886719 232.46875 273.457031 C 232.515625 272.125 232.644531 270.730469 232.851562 269.324219 C 233.042969 267.976562 233.320312 266.585938 233.671875 265.164062 C 234.726562 260.917969 236.570312 256.390625 239.441406 251.601562 C 239.441406 251.585938 240.160156 249.976562 240.175781 249.960938 C 241.113281 248.40625 241.316406 248.480469 242.210938 246.972656 C 254.75 225.804688 261.519531 209.792969 258.207031 185.140625 C 257.972656 183.382812 257.328125 179.441406 256.976562 177.582031 C 256.785156 178.871094 256.082031 182.945312 256.054688 183.03125 C 255.9375 183.605469 255.585938 184.203125 255.46875 184.585938 C 250.019531 200.710938 241.433594 212.578125 229.085938 225.980469 C 227.417969 227.796875 225.671875 229.628906 223.871094 231.488281 C 220.855469 234.625 217.691406 237.816406 214.351562 241.140625 C 213.003906 242.476562 211.640625 243.824219 210.265625 245.199219 C 208.988281 246.460938 207.40625 249.15625 205.515625 251.132812 C 204.34375 254.398438 203.027344 258.074219 201.898438 261.957031 C 201.402344 261.765625 200.917969 261.589844 200.40625 261.386719 C 176.425781 252.113281 160.371094 239.734375 160.371094 239.734375 C 160.371094 239.734375 172.71875 255.804688 193.535156 270.90625 C 195.542969 272.371094 197.535156 273.632812 199.480469 274.761719 C 198.617188 288.339844 204.609375 301.390625 231.664062 305.273438 C 236.25 305.933594 240.9375 305.902344 245.652344 305.375 C 245.59375 305.230469 245.917969 305.246094 245.886719 305.15625 C 245.859375 305.082031 246.136719 304.878906 246.136719 304.878906"/><path fill="#9F2254" d="M 231.648438 269.472656 C 255.671875 273.339844 291.226562 272.710938 328.125 255.4375 C 329.019531 255.015625 330 256.113281 330.878906 255.671875 C 330.878906 255.671875 305.652344 281.441406 275.535156 296 C 274.65625 296.425781 273.792969 296.878906 272.898438 297.289062 C 269.984375 298.609375 267.027344 299.765625 264.054688 300.847656 C 258.222656 302.929688 252.320312 304.527344 246.460938 305.257812 C 246.183594 305.300781 245.917969 305.347656 245.65625 305.375 C 245.597656 305.230469 245.566406 305.125 245.539062 305.039062 C 245.507812 304.964844 245.492188 304.921875 245.492188 304.921875 C 245.492188 304.921875 243.605469 303.414062 241.1875 300.644531 C 240.617188 299.984375 240.03125 299.296875 239.429688 298.503906 C 238.976562 297.90625 238.519531 297.273438 238.050781 296.601562 C 237.742188 296.148438 237.4375 295.691406 237.128906 295.210938 C 236.222656 293.757812 235.339844 292.164062 234.535156 290.433594 C 233.730469 288.691406 233.011719 286.816406 232.441406 284.808594 C 232.0625 283.476562 231.753906 282.070312 231.503906 280.621094 C 231.152344 278.4375 230.992188 276.121094 231.0625 273.691406 C 231.109375 272.359375 231.238281 270.964844 231.445312 269.558594 L 231.648438 269.472656"/><path fill="#FCB03F" d="M 214.4375 242.125 C 217.777344 238.796875 220.941406 235.605469 223.960938 232.46875 C 225.761719 230.609375 227.503906 228.765625 229.175781 226.960938 C 241.523438 213.558594 250.574219 201.019531 256.023438 184.890625 C 256.15625 184.511719 256.289062 184.011719 256.40625 183.441406 C 256.433594 183.355469 256.449219 183.265625 256.464844 183.179688 C 256.597656 182.578125 256.726562 181.902344 256.84375 181.15625 C 256.902344 180.628906 258.53125 179.589844 258.574219 179.089844 C 257.210938 172.074219 254.0625 164.691406 250.621094 159.050781 C 250.632812 159.082031 250.632812 159.097656 250.648438 159.125 L 250.574219 159.050781 C 250.121094 158.628906 249.652344 158.230469 249.199219 157.820312 C 247.808594 156.535156 246.402344 155.289062 244.964844 154.074219 C 240.644531 150.4375 236.117188 147.128906 231.371094 144.195312 C 231.605469 148.140625 231.765625 152.082031 231.796875 156.019531 C 231.8125 156.460938 231.796875 156.898438 231.796875 157.339844 C 231.796875 158.878906 231.8125 160.402344 231.78125 161.925781 C 231.738281 163.902344 231.679688 165.863281 231.578125 167.828125 C 231.503906 169.277344 231.402344 170.742188 231.296875 172.191406 C 231.285156 172.339844 231.269531 172.484375 231.253906 172.644531 C 230.816406 178.140625 230.113281 183.617188 229.117188 189.023438 L 227.386719 197.226562 C 223.753906 211.90625 216.402344 225.234375 210.351562 238.976562 C 208.753906 242.636719 207.230469 246.3125 205.898438 250.078125 C 205.765625 250.414062 205.632812 250.78125 205.515625 251.132812 C 207.40625 249.15625 209.078125 247.441406 210.351562 246.179688 C 211.726562 244.804688 213.105469 243.457031 214.4375 242.125"/><path fill="#525353" d="M 135.054688 321.109375 C 143.859375 317.226562 152.007812 314.78125 161.6875 312.859375 C 161.628906 310.765625 161.542969 308.671875 161.351562 306.589844 C 165.496094 295.824219 169.335938 285 172.792969 274.117188 C 166.625 274.714844 160.488281 275.667969 154.4375 276.941406 C 149.941406 277.910156 145.511719 279.097656 141.113281 280.429688 C 137.582031 281.484375 134.097656 282.714844 130.640625 284.003906 L 144.308594 287.3125 L 133.3125 321.839844 L 135.054688 321.109375"/><path fill="#DF0067" d="M 304.042969 218.816406 C 301.640625 215.667969 299.222656 212.519531 296.777344 209.398438 C 296.644531 209.238281 296.511719 209.078125 296.394531 208.917969 C 293.804688 205.632812 291.195312 202.367188 288.542969 199.132812 C 288.515625 199.085938 288.484375 199.058594 288.441406 199.015625 C 285.71875 195.6875 282.964844 192.394531 280.152344 189.15625 C 279.976562 188.949219 279.785156 188.730469 279.609375 188.527344 C 277.894531 186.546875 276.152344 184.601562 274.394531 182.652344 C 273.777344 181.976562 273.164062 181.320312 272.5625 180.644531 C 271.097656 179.046875 269.632812 177.480469 268.152344 175.929688 C 266.996094 174.710938 265.824219 173.511719 264.652344 172.324219 C 263.539062 171.195312 262.441406 170.070312 261.3125 168.957031 C 258.910156 166.582031 256.464844 164.238281 253.972656 161.953125 C 252.863281 160.941406 251.746094 159.945312 250.621094 158.980469 C 250.621094 158.980469 250.605469 158.996094 250.605469 159.007812 C 252.980469 165.835938 255.6875 172.75 257.050781 179.867188 C 257.402344 181.730469 257.695312 183.53125 257.929688 185.289062 C 261.242188 209.941406 253.34375 226.027344 240.804688 247.207031 C 239.898438 248.714844 238.976562 250.269531 238.039062 251.835938 C 235.167969 256.625 233.320312 261.152344 232.265625 265.398438 C 231.914062 266.820312 231.636719 268.210938 231.445312 269.558594 C 256.039062 273.53125 293.042969 274.277344 330.878906 255.671875 C 330.878906 255.671875 323.464844 244.761719 312.289062 229.777344 C 309.800781 226.421875 307.28125 223.066406 304.746094 219.726562 C 304.511719 219.417969 304.277344 219.113281 304.042969 218.820312"/><path fill="#AA9678" d="M 132.003906 328.007812 L 144.308594 287.3125 L 130.640625 284.003906 C 127.578125 285.160156 124.546875 286.390625 121.550781 287.722656 L 109.363281 328.007812 L 122.96875 328.226562 L 132.003906 328.007812"/><path fill="#FFF" d="M 140.652344 310.398438 C 141.855469 310.867188 143.078125 311.277344 144.296875 311.703125 C 157.894531 316.480469 172.5 319.101562 187.734375 319.101562 C 205.105469 319.101562 221.675781 315.703125 236.851562 309.578125 C 237.65625 309.257812 238.445312 308.90625 239.238281 308.570312 C 240.527344 308.027344 241.800781 307.457031 243.074219 306.871094 C 244.203125 306.34375 245.347656 305.816406 246.460938 305.257812 C 246.179688 305.300781 245.917969 305.347656 245.652344 305.375 C 240.9375 305.902344 236.25 305.933594 231.664062 305.273438 C 204.609375 301.390625 198.617188 288.339844 199.480469 274.761719 C 197.535156 273.632812 195.542969 272.371094 193.535156 270.90625 C 172.71875 255.804688 160.371094 239.734375 160.371094 239.734375 C 160.371094 239.734375 176.425781 252.113281 200.40625 261.386719 C 200.917969 261.589844 201.402344 261.765625 201.898438 261.957031 C 203.027344 258.074219 204.34375 254.398438 205.515625 251.132812 C 205.632812 250.78125 205.765625 250.414062 205.898438 250.078125 C 207.230469 246.3125 208.753906 242.636719 210.351562 238.972656 C 216.402344 225.234375 223.753906 211.902344 227.386719 197.226562 L 229.117188 189.023438 L 214.320312 189.023438 L 214.320312 189.050781 L 214.304688 189.050781 C 214.304688 189.097656 214.320312 189.125 214.320312 189.167969 C 214.320312 191.617188 213.824219 193.929688 212.929688 196.054688 C 212.488281 197.109375 211.933594 198.105469 211.304688 199.042969 C 210.027344 200.933594 208.417969 202.558594 206.527344 203.816406 C 205.589844 204.460938 204.578125 205.003906 203.523438 205.445312 C 201.414062 206.335938 199.085938 206.835938 196.65625 206.835938 C 196.039062 206.835938 195.425781 206.804688 194.824219 206.746094 C 194.675781 206.734375 194.546875 206.6875 194.398438 206.675781 C 193.945312 206.617188 193.476562 206.558594 193.035156 206.46875 C 192.90625 206.441406 192.789062 206.394531 192.65625 206.367188 C 192.203125 206.265625 191.75 206.148438 191.292969 206 C 191.222656 205.972656 191.132812 205.941406 191.046875 205.914062 C 190.574219 205.75 190.09375 205.574219 189.625 205.371094 C 189.582031 205.355469 189.550781 205.339844 189.507812 205.3125 C 189.007812 205.09375 188.511719 204.859375 188.042969 204.59375 L 188.011719 204.578125 C 186.503906 203.714844 185.113281 202.644531 183.910156 201.386719 L 133.21875 189.023438 L 77.890625 189.023438 C 77.65625 189.433594 77.390625 189.84375 77.15625 190.269531 C 76.734375 191.03125 76.335938 191.804688 75.929688 192.582031 C 74.929688 194.488281 73.960938 196.40625 73.046875 198.355469 C 72.726562 199.027344 72.40625 199.714844 72.09375 200.40625 C 70.976562 202.878906 69.914062 205.386719 68.945312 207.917969 C 68.902344 208.035156 68.855469 208.152344 68.8125 208.257812 C 67.707031 211.171875 66.699219 214.101562 65.789062 217.074219 C 64.625 220.882812 63.625 224.722656 62.789062 228.589844 C 71.5 255.160156 88.445312 277.984375 110.601562 294.082031 C 111.246094 294.550781 111.925781 294.960938 112.578125 295.414062 C 116.324219 298.035156 120.195312 300.484375 124.214844 302.710938 C 129.488281 305.625 134.96875 308.21875 140.65625 310.398438"/><path fill="#8B7460" d="M 273.308594 341.851562 C 272.972656 338.363281 272.753906 334.832031 272.753906 331.273438 C 272.753906 329.136719 271.023438 327.390625 268.886719 327.390625 L 106.113281 327.390625 C 103.976562 327.390625 102.238281 329.136719 102.238281 331.273438 C 102.238281 334.832031 102.027344 338.363281 101.6875 341.851562 C 101.308594 345.71875 100.714844 349.539062 99.929688 353.289062 C 102.292969 354.535156 104.671875 355.75 107.089844 356.910156 C 108.679688 349.921875 109.664062 342.730469 109.921875 335.40625 C 109.925781 335.316406 109.933594 335.242188 109.9375 335.15625 L 265.0625 335.15625 C 265.0625 335.242188 265.078125 335.316406 265.078125 335.40625 C 265.339844 342.730469 266.324219 349.921875 267.90625 356.910156 C 270.320312 355.75 272.710938 354.535156 275.066406 353.289062 C 274.292969 349.539062 273.691406 345.71875 273.308594 341.851562"/></svg>