<svg xmlns="http://www.w3.org/2000/svg" width="375" viewBox="0 0 375 375" height="375" version="1.0"><path fill="#F06292" d="M 322.238281 210.289062 C 309.21875 210.355469 297.941406 213.476562 288.496094 218.140625 C 285.042969 211.246094 281.539062 205.179688 280.953125 200.671875 C 280.269531 195.410156 279.472656 192.261719 280.300781 185.992188 C 281.132812 179.726562 284.761719 170.84375 284.710938 170.175781 C 284.660156 169.507812 283.898438 166.316406 276.390625 166.257812 C 268.882812 166.207031 262.457031 167.703125 261.703125 169.683594 C 260.949219 171.664062 259.503906 176.121094 258.605469 180.773438 C 257.292969 187.574219 243.613281 211.84375 235.851562 224.535156 C 233.3125 219.578125 231.152344 215.210938 230.707031 211.761719 C 230.019531 206.5 229.222656 203.351562 230.054688 197.082031 C 230.882812 190.816406 234.515625 181.933594 234.464844 181.265625 C 234.414062 180.597656 233.652344 177.40625 226.144531 177.347656 C 218.632812 177.296875 212.210938 178.792969 211.457031 180.773438 C 210.703125 182.753906 209.890625 187.378906 208.359375 191.863281 C 206.816406 196.339844 188.644531 236.816406 183.878906 247.316406 C 181.449219 252.660156 179.339844 256.957031 177.851562 259.886719 C 177.839844 259.878906 177.839844 259.867188 177.839844 259.867188 C 177.839844 259.867188 177.75 260.0625 177.597656 260.394531 C 176.316406 262.890625 175.5625 264.269531 175.5625 264.269531 C 175.5625 264.269531 175.574219 264.285156 175.589844 264.320312 C 174.574219 266.152344 173.492188 267.855469 172.957031 267.855469 C 172.585938 267.855469 171.832031 262.972656 173.117188 256.273438 C 175.828125 242.230469 182.320312 220.339844 182.261719 219.578125 C 182.226562 219.1875 183.46875 215.371094 178.019531 213.375 C 172.71875 211.4375 170.832031 214.671875 170.351562 214.679688 C 169.882812 214.6875 169.539062 215.820312 169.539062 215.820312 C 169.539062 215.820312 175.4375 191.195312 158.277344 191.195312 C 147.546875 191.195312 132.679688 202.929688 125.359375 213.5625 C 120.738281 216.082031 110.839844 221.480469 100.351562 227.242188 C 96.324219 229.457031 92.210938 231.714844 88.308594 233.863281 C 88.042969 233.570312 87.773438 233.28125 87.503906 232.984375 C 66.6875 210.796875 28.222656 195.105469 29.847656 165.269531 C 30.441406 154.421875 34.214844 125.863281 103.773438 91.230469 C 160.75 62.859375 206.367188 70.667969 214.25 87.964844 C 225.507812 112.691406 189.871094 158.636719 130.699219 165.269531 C 108.15625 167.796875 96.28125 159.058594 93.328125 155.808594 C 90.21875 152.382812 89.753906 152.230469 88.59375 152.875 C 86.707031 153.925781 87.902344 156.945312 88.59375 158.746094 C 90.363281 163.339844 97.609375 171.484375 109.96875 175.546875 C 120.847656 179.117188 147.316406 181.070312 179.324219 168.695312 C 215.179688 154.835938 243.175781 116.28125 234.945312 84.058594 C 226.582031 51.285156 172.203125 40.507812 120.738281 58.78125 C 90.066406 69.660156 56.910156 86.730469 33.0625 109.011719 C 4.714844 135.507812 0.195312 158.578125 2.058594 168.210938 C 8.675781 202.457031 55.902344 224.753906 74.8125 241.273438 C 73.882812 241.792969 73.003906 242.273438 72.207031 242.714844 C 62.726562 247.398438 26.722656 266.230469 17.71875 286.117188 C 7.5 308.679688 19.34375 324.871094 27.179688 327.054688 C 51.46875 333.804688 76.386719 321.65625 89.789062 301.691406 C 103.179688 281.738281 101.546875 255.742188 95.402344 243.878906 C 95.324219 243.738281 95.238281 243.59375 95.164062 243.441406 C 97.609375 241.996094 100.105469 240.523438 102.578125 239.066406 C 107.402344 236.234375 112.144531 233.59375 116.25 231.359375 C 113.949219 237.65625 112.261719 245.207031 111.390625 256.113281 C 110.359375 268.921875 115.613281 285.476562 122.488281 291.988281 C 125.519531 294.855469 129.160156 294.925781 131.460938 294.925781 C 139.460938 294.925781 143.109375 288.277344 147.128906 280.410156 C 152.058594 270.765625 156.433594 259.53125 156.433594 259.53125 C 156.433594 259.53125 150.949219 289.867188 165.898438 289.867188 C 171.347656 289.867188 176.824219 282.800781 179.273438 279.207031 C 179.28125 279.25 179.28125 279.265625 179.28125 279.265625 C 179.28125 279.265625 179.425781 279.03125 179.703125 278.5625 C 180.269531 277.703125 180.59375 277.152344 180.59375 277.152344 C 180.59375 277.152344 180.601562 277.09375 180.617188 276.992188 C 182.808594 273.191406 187.667969 264.53125 194.949219 250.242188 C 204.363281 231.785156 213.386719 208.65625 213.386719 208.65625 C 213.386719 208.65625 214.222656 214.308594 216.976562 223.664062 C 218.59375 229.160156 222.027344 235.242188 224.746094 241.082031 C 222.5625 244.109375 221.222656 245.84375 221.222656 245.84375 C 221.222656 245.84375 221.234375 245.878906 221.257812 245.9375 C 219.515625 248.253906 217.558594 250.75 215.511719 253.1875 C 208.078125 262.027344 199.234375 272.125 198.046875 275.035156 C 196.652344 278.472656 196.980469 280.992188 199.679688 283.03125 C 201.652344 284.511719 205.15625 284.746094 208.824219 284.503906 C 215.503906 284.054688 220.191406 282.394531 222.511719 281.390625 C 226.125 280.113281 230.332031 278.105469 234.277344 275.207031 C 241.566406 269.851562 245.960938 262.195312 245.535156 252.042969 C 245.300781 246.453125 243.519531 240.910156 241.261719 235.683594 C 241.921875 234.734375 242.582031 233.773438 243.25 232.808594 C 254.738281 216.023438 263.652344 197.582031 263.652344 197.582031 C 263.652344 197.582031 264.488281 203.234375 267.242188 212.589844 C 268.628906 217.320312 271.378906 222.488281 273.851562 227.546875 C 263.050781 236.316406 256.355469 246.511719 254.027344 253.195312 C 249.726562 265.5625 253.09375 271.164062 259.410156 272.441406 C 262.273438 273.015625 266.316406 271.703125 269.355469 270.417969 C 273.140625 269.164062 277.6875 267.078125 281.9375 263.953125 C 289.222656 258.601562 296.234375 251.105469 295.808594 240.960938 C 295.613281 236.34375 294.363281 231.757812 292.660156 227.359375 C 301.820312 223.542969 313.671875 221.429688 328.773438 223.1875 C 361.167969 226.96875 367.515625 247.179688 366.304688 255.640625 C 365.085938 264.097656 358.296875 268.75 356.019531 270.15625 C 353.753906 271.558594 353.058594 272.050781 353.246094 273.089844 C 353.523438 274.605469 354.574219 274.554688 356.511719 274.222656 C 359.179688 273.777344 373.519531 267.347656 374.136719 251.730469 C 374.90625 231.886719 355.902344 210.109375 322.238281 210.289062 Z M 72.546875 294.410156 C 61.8125 306.109375 46.828125 310.523438 40.394531 306.800781 C 33.453125 302.785156 36.203125 285.558594 49.367188 273.140625 C 57.394531 265.578125 67.753906 258.609375 74.628906 254.320312 C 76.195312 253.378906 78.488281 252 81.28125 250.328125 C 81.746094 250.066406 82.007812 249.921875 82.007812 249.921875 L 82 249.902344 C 82.542969 249.582031 83.09375 249.253906 83.660156 248.90625 C 88.460938 266.578125 83.8125 282.132812 72.546875 294.410156 Z M 150.71875 241.308594 C 146.988281 250.410156 139.164062 273.707031 134.398438 272.457031 C 130.308594 271.382812 127.820312 253.675781 133.585938 236.25 C 136.480469 227.476562 142.679688 216.996094 146.316406 212.929688 C 152.175781 206.378906 158.625 204.242188 160.191406 206.898438 C 162.179688 210.28125 153.0625 235.597656 150.71875 241.308594 Z M 215.300781 272.101562 C 213.714844 272.929688 212.261719 273.445312 211.589844 273.046875 C 211.09375 272.753906 212.242188 271.660156 212.242188 271.660156 C 212.242188 271.660156 220.320312 262.972656 223.5 259.023438 C 225.355469 256.722656 227.496094 253.988281 229.832031 250.945312 C 229.851562 251.25 229.859375 251.554688 229.859375 251.847656 C 229.84375 262.253906 219.785156 269.277344 215.300781 272.101562 Z M 265.046875 260.765625 C 263.863281 259.929688 264.066406 257.210938 267.953125 248.746094 C 269.476562 245.421875 272.960938 239.828125 279.007812 234.484375 C 279.710938 236.683594 280.132812 238.789062 280.125 240.75 C 280.046875 253.847656 270.703125 258.734375 265.046875 260.765625 Z M 265.046875 260.765625"/></svg>