<svg xmlns="http://www.w3.org/2000/svg" width="375" viewBox="0 0 375 375" height="375" version="1.0"><path fill="#38BDF8" d="M 194.164062 317.773438 C 143.457031 317.773438 119.070312 293.484375 101.257812 275.75 C 98.03125 271.722656 94.351562 268.167969 90.214844 265.082031 C 86.078125 261.996094 81.621094 259.480469 76.84375 257.53125 C 66.167969 254.917969 51.785156 254.738281 35.265625 276.335938 C 34.621094 277.183594 33.90625 277.96875 33.128906 278.691406 C 32.347656 279.414062 31.511719 280.066406 30.617188 280.648438 C 29.726562 281.230469 28.789062 281.730469 27.8125 282.148438 C 26.832031 282.566406 25.824219 282.902344 24.789062 283.148438 C 23.753906 283.394531 22.707031 283.550781 21.644531 283.621094 C 20.582031 283.6875 19.519531 283.664062 18.460938 283.546875 C 17.402344 283.433594 16.363281 283.226562 15.339844 282.933594 C 14.316406 282.640625 13.324219 282.261719 12.367188 281.796875 C 11.410156 281.335938 10.496094 280.792969 9.632812 280.171875 C 8.765625 279.550781 7.960938 278.863281 7.214844 278.105469 C 6.464844 277.347656 5.789062 276.53125 5.183594 275.65625 C 4.574219 274.78125 4.046875 273.859375 3.597656 272.894531 C 3.148438 271.929688 2.785156 270.933594 2.507812 269.90625 C 2.230469 268.878906 2.042969 267.835938 1.941406 266.773438 C 1.84375 265.714844 1.835938 264.652344 1.917969 263.59375 C 2.003906 262.53125 2.175781 261.484375 2.4375 260.453125 C 16.152344 206.640625 52.425781 178.195312 107.328125 178.195312 C 158.03125 178.195312 182.417969 202.480469 200.230469 220.21875 C 203.457031 224.242188 207.140625 227.800781 211.273438 230.886719 C 215.410156 233.972656 219.867188 236.488281 224.644531 238.4375 C 235.328125 241.042969 249.707031 241.226562 266.222656 219.632812 C 266.867188 218.785156 267.582031 218 268.363281 217.277344 C 269.140625 216.550781 269.980469 215.898438 270.871094 215.320312 C 271.765625 214.738281 272.699219 214.238281 273.679688 213.820312 C 274.65625 213.398438 275.664062 213.066406 276.699219 212.820312 C 277.734375 212.570312 278.78125 212.414062 279.84375 212.347656 C 280.90625 212.28125 281.96875 212.304688 283.027344 212.421875 C 284.085938 212.535156 285.125 212.738281 286.148438 213.035156 C 287.171875 213.328125 288.164062 213.707031 289.121094 214.167969 C 290.078125 214.632812 290.992188 215.175781 291.855469 215.796875 C 292.722656 216.414062 293.527344 217.105469 294.277344 217.863281 C 295.023438 218.621094 295.699219 219.4375 296.304688 220.3125 C 296.914062 221.1875 297.441406 222.105469 297.890625 223.074219 C 298.339844 224.039062 298.703125 225.035156 298.980469 226.0625 C 299.257812 227.089844 299.449219 228.132812 299.546875 229.195312 C 299.644531 230.253906 299.652344 231.3125 299.570312 232.375 C 299.488281 233.4375 299.3125 234.484375 299.050781 235.515625 C 285.335938 289.328125 249.0625 317.773438 194.164062 317.773438 Z M 77.929688 219.882812 C 80.546875 220.253906 83.136719 220.757812 85.699219 221.390625 C 89.757812 222.667969 93.703125 224.230469 97.539062 226.074219 C 101.371094 227.914062 105.058594 230.019531 108.59375 232.386719 C 112.128906 234.753906 115.476562 237.355469 118.640625 240.199219 C 121.804688 243.042969 124.753906 246.097656 127.480469 249.359375 C 143.617188 265.414062 158.832031 280.550781 194.164062 280.550781 C 204.21875 280.761719 214.019531 279.273438 223.558594 276.085938 C 220.941406 275.714844 218.351562 275.210938 215.789062 274.578125 C 211.730469 273.296875 207.785156 271.738281 203.949219 269.894531 C 200.117188 268.054688 196.429688 265.949219 192.894531 263.582031 C 189.359375 261.214844 186.011719 258.609375 182.847656 255.765625 C 179.683594 252.921875 176.738281 249.871094 174.007812 246.605469 C 157.871094 230.554688 142.65625 215.414062 107.328125 215.414062 C 97.269531 215.203125 87.472656 216.695312 77.929688 219.882812 Z M 268.605469 196.804688 C 217.898438 196.804688 193.492188 172.5 175.671875 154.753906 C 172.449219 150.734375 168.769531 147.183594 164.640625 144.101562 C 160.507812 141.019531 156.058594 138.507812 151.285156 136.5625 C 140.609375 133.949219 126.226562 133.773438 109.707031 155.367188 C 109.0625 156.214844 108.347656 157 107.570312 157.722656 C 106.789062 158.449219 105.953125 159.101562 105.058594 159.679688 C 104.167969 160.261719 103.230469 160.761719 102.253906 161.179688 C 101.273438 161.601562 100.265625 161.933594 99.230469 162.179688 C 98.195312 162.429688 97.148438 162.585938 96.085938 162.652344 C 95.023438 162.71875 93.960938 162.695312 92.902344 162.578125 C 91.84375 162.464844 90.804688 162.261719 89.78125 161.964844 C 88.757812 161.671875 87.765625 161.292969 86.808594 160.832031 C 85.851562 160.367188 84.9375 159.824219 84.074219 159.203125 C 83.207031 158.585938 82.402344 157.894531 81.65625 157.136719 C 80.90625 156.378906 80.230469 155.5625 79.625 154.6875 C 79.015625 153.8125 78.488281 152.894531 78.039062 151.925781 C 77.589844 150.960938 77.226562 149.964844 76.949219 148.9375 C 76.671875 147.910156 76.484375 146.867188 76.382812 145.804688 C 76.285156 144.746094 76.277344 143.6875 76.359375 142.625 C 76.445312 141.5625 76.617188 140.515625 76.878906 139.484375 C 90.59375 85.671875 126.867188 57.226562 181.769531 57.226562 C 232.472656 57.226562 256.859375 81.511719 274.671875 99.25 C 277.898438 103.277344 281.582031 106.832031 285.714844 109.917969 C 289.851562 113.003906 294.308594 115.519531 299.089844 117.46875 C 309.769531 120.074219 324.148438 120.261719 340.664062 98.664062 C 341.308594 97.816406 342.023438 97.03125 342.804688 96.308594 C 343.585938 95.585938 344.421875 94.933594 345.3125 94.351562 C 346.207031 93.769531 347.140625 93.269531 348.121094 92.851562 C 349.097656 92.433594 350.105469 92.097656 351.140625 91.851562 C 352.175781 91.605469 353.226562 91.449219 354.289062 91.378906 C 355.351562 91.3125 356.410156 91.335938 357.46875 91.453125 C 358.527344 91.566406 359.566406 91.773438 360.589844 92.066406 C 361.613281 92.359375 362.605469 92.738281 363.5625 93.203125 C 364.523438 93.664062 365.433594 94.207031 366.300781 94.828125 C 367.164062 95.449219 367.96875 96.136719 368.71875 96.894531 C 369.464844 97.652344 370.140625 98.46875 370.75 99.34375 C 371.355469 100.21875 371.882812 101.140625 372.332031 102.105469 C 372.78125 103.070312 373.144531 104.066406 373.421875 105.09375 C 373.699219 106.121094 373.890625 107.164062 373.988281 108.226562 C 374.085938 109.285156 374.09375 110.347656 374.011719 111.40625 C 373.929688 112.46875 373.753906 113.515625 373.492188 114.546875 C 359.777344 168.359375 323.503906 196.804688 268.605469 196.804688 Z M 152.371094 98.914062 C 154.988281 99.285156 157.578125 99.789062 160.144531 100.421875 C 164.199219 101.703125 168.144531 103.261719 171.980469 105.105469 C 175.816406 106.945312 179.5 109.050781 183.035156 111.417969 C 186.570312 113.785156 189.917969 116.390625 193.082031 119.234375 C 196.246094 122.078125 199.195312 125.128906 201.921875 128.394531 C 217.34375 143.765625 233.273438 159.585938 268.605469 159.585938 C 278.660156 159.796875 288.460938 158.304688 298 155.117188 C 295.382812 154.746094 292.792969 154.242188 290.230469 153.609375 C 286.171875 152.332031 282.226562 150.769531 278.390625 148.925781 C 274.558594 147.085938 270.871094 144.980469 267.335938 142.613281 C 263.800781 140.246094 260.453125 137.644531 257.289062 134.800781 C 254.125 131.957031 251.179688 128.902344 248.449219 125.640625 C 232.3125 109.585938 217.101562 94.449219 181.769531 94.449219 C 171.710938 94.238281 161.914062 95.726562 152.371094 98.914062 Z M 152.371094 98.914062"/></svg>