<svg xmlns="http://www.w3.org/2000/svg" width="150" viewBox="0 0 150 150" height="150" version="1.0"><path fill="#6C757D" d="M 82.113281 145.417969 L 52.34375 145.417969 L 52.558594 57.332031 L 82.449219 57.40625 L 82.308594 115.527344 C 104.605469 115.433594 119 99.101562 119 73.867188 C 119 49.351562 104.925781 34.117188 82.273438 34.117188 L 30.164062 34.117188 L 30.164062 145.382812 L 0.273438 145.382812 L 0.273438 4.226562 L 82.273438 4.226562 C 91.726562 4.226562 100.648438 5.882812 108.789062 9.152344 C 112.863281 10.769531 116.714844 12.804688 120.347656 15.25 C 123.984375 17.695312 127.316406 20.5 130.347656 23.660156 C 142.480469 36.320312 148.894531 53.683594 148.894531 73.867188 C 148.894531 83.757812 147.355469 93.128906 144.320312 101.710938 C 141.355469 110.273438 136.847656 117.929688 130.789062 124.671875 C 118.65625 138.042969 101.371094 145.417969 82.113281 145.417969 Z M 82.113281 145.417969"/></svg>