<svg xmlns="http://www.w3.org/2000/svg" width="375" viewBox="0 0 375 375" height="375" version="1.0"><defs><clipPath id="a"><path d="M 42 91.703125 L 153 91.703125 L 153 282.953125 L 42 282.953125 Z M 42 91.703125"/></clipPath><clipPath id="b"><path d="M 41 91.703125 L 154 91.703125 L 154 282.953125 L 41 282.953125 Z M 41 91.703125"/></clipPath><clipPath id="c"><path d="M 127 91.703125 L 187 91.703125 L 187 282.953125 L 127 282.953125 Z M 127 91.703125"/></clipPath><clipPath id="d"><path d="M 127 91.703125 L 188 91.703125 L 188 282.953125 L 127 282.953125 Z M 127 91.703125"/></clipPath><clipPath id="e"><path d="M 160 91.703125 L 271 91.703125 L 271 282.953125 L 160 282.953125 Z M 160 91.703125"/></clipPath><clipPath id="f"><path d="M 245 91.703125 L 307 91.703125 L 307 282.953125 L 245 282.953125 Z M 245 91.703125"/></clipPath><clipPath id="g"><path d="M 244 91.703125 L 308 91.703125 L 308 282.953125 L 244 282.953125 Z M 244 91.703125"/></clipPath><clipPath id="h"><path d="M 0 194 L 68 194 L 68 282.953125 L 0 282.953125 Z M 0 194"/></clipPath><clipPath id="i"><path d="M 0 193 L 69 193 L 69 282.953125 L 0 282.953125 Z M 0 193"/></clipPath><clipPath id="j"><path d="M 278 194 L 375 194 L 375 282.953125 L 278 282.953125 Z M 278 194"/></clipPath><clipPath id="k"><path d="M 277 193 L 375 193 L 375 282.953125 L 277 282.953125 Z M 277 193"/></clipPath></defs><g clip-path="url(#a)"><path fill="#EB7077" d="M 92.777344 97.542969 C 94.128906 95.246094 95.890625 93.035156 98.421875 91.953125 C 99.460938 91.773438 100.496094 91.863281 101.535156 91.863281 L 152.664062 91.863281 C 151.171875 93.125 149.722656 94.433594 148.730469 96.144531 C 146.113281 100.429688 144.351562 105.207031 142.726562 109.988281 C 138.121094 124.414062 134.914062 139.246094 131.796875 154.078125 C 130.394531 160.796875 129.042969 167.558594 127.777344 174.277344 C 123.890625 196.277344 119.875 218.230469 114.859375 240.003906 C 112.46875 250.0625 110.027344 260.121094 106.324219 269.800781 C 104.605469 273.816406 102.9375 278.109375 99.640625 281.070312 C 98.871094 281.757812 98.105469 282.605469 97.019531 282.472656 L 51.855469 282.472656 C 48.785156 282.386719 45.761719 282.664062 42.6875 282.339844 C 44.722656 280.765625 46.527344 278.867188 47.703125 276.617188 C 51.089844 270.164062 53.210938 263.1875 55.246094 256.238281 C 58.40625 245.054688 60.933594 233.742188 63.328125 222.425781 C 64.820312 214.984375 66.582031 207.589844 67.664062 200.109375 C 68.882812 191.769531 70.734375 183.519531 72.226562 175.222656 C 74.574219 163.003906 77.058594 150.789062 79.8125 138.660156 C 82.027344 129.191406 84.285156 119.769531 87.308594 110.527344 C 88.800781 106.0625 90.425781 101.644531 92.777344 97.542969 Z M 92.777344 97.542969"/></g><g clip-path="url(#b)"><path transform="matrix(1.46252 0 0 1.45992 .37 91.412)" fill="none" d="M 63.183158 4.199171 C 64.107292 2.625887 65.311872 1.111467 67.04262 0.370311 C 67.753081 0.247231 68.460872 0.308771 69.171333 0.308771 L 104.130842 0.308771 C 103.110555 1.173007 102.119648 2.069351 101.441238 3.241287 C 99.65173 6.17648 98.44715 9.448804 97.336053 12.723805 C 94.187053 22.604995 91.994238 32.764452 89.862854 42.92391 C 88.903998 47.526035 87.979864 52.157592 87.11449 56.759716 C 84.456937 71.828999 81.711244 86.866174 78.281799 101.780269 C 76.647203 108.670078 74.977886 115.559886 72.445866 122.190157 C 71.270666 124.940729 70.130189 127.881272 67.875943 129.909418 C 67.349774 130.380333 66.826276 130.96095 66.083764 130.869978 L 35.202731 130.869978 C 33.103398 130.811113 31.036116 131.001085 28.934111 130.779006 C 30.325654 129.700717 31.559613 128.400349 32.363557 126.859173 C 34.679233 122.438992 36.129536 117.660275 37.521079 112.900286 C 39.681843 105.239889 41.40992 97.491196 43.047187 89.739826 C 44.067473 84.642706 45.272053 79.577693 46.011894 74.453816 C 46.845217 68.741295 48.111227 63.090314 49.131514 57.407225 C 50.736729 49.037779 52.435427 40.67101 54.318416 32.363104 C 55.832821 25.877319 57.376606 19.423642 59.443888 13.093045 C 60.464175 10.034773 61.575272 7.008608 63.183158 4.199171 Z M 63.183158 4.199171" stroke="#EB7077" stroke-width=".094"/></g><g clip-path="url(#c)"><path fill="#F6A2AD" d="M 152.664062 91.863281 C 153.964844 91.863281 155.28125 91.816406 156.597656 91.863281 C 159.476562 93.394531 161.921875 95.832031 163.28125 98.851562 C 165.078125 102.277344 166.570312 105.882812 167.929688 109.582031 C 172.449219 123.511719 175.507812 137.847656 178.578125 152.140625 C 181.210938 164.941406 183.683594 177.792969 186.039062 190.6875 C 186.214844 191.363281 185.992188 192.308594 186.898438 192.488281 C 183.640625 209.441406 180.4375 226.4375 176.371094 243.257812 C 174.160156 252.3125 171.808594 261.332031 168.472656 270.078125 C 166.660156 274.457031 164.816406 279.230469 160.96875 282.339844 C 158.527344 282.882812 156.773438 281.027344 155.28125 279.363281 C 152.707031 276.078125 151.128906 272.195312 149.589844 268.324219 C 144.488281 254.425781 141.371094 239.960938 138.210938 225.535156 C 135.816406 214.308594 133.691406 202.992188 131.480469 191.722656 C 130.488281 185.996094 129.132812 180.359375 128.363281 174.636719 C 128.230469 174.546875 127.914062 174.367188 127.777344 174.277344 C 129.042969 167.558594 130.394531 160.796875 131.796875 154.078125 C 134.914062 139.246094 138.121094 124.414062 142.726562 109.988281 C 144.351562 105.207031 146.113281 100.429688 148.730469 96.144531 C 149.722656 94.433594 151.171875 93.125 152.664062 91.863281 Z M 152.664062 91.863281"/></g><g clip-path="url(#d)"><path transform="matrix(1.46252 0 0 1.45992 .37 91.412)" fill="none" d="M 104.130842 0.308771 C 105.020254 0.308771 105.92035 0.276663 106.820446 0.308771 C 108.788904 1.357627 110.460892 3.027235 111.390368 5.095516 C 112.618986 7.442064 113.639272 9.911693 114.568748 12.445537 C 117.658988 21.986919 119.750309 31.806568 121.849642 41.596786 C 123.649834 50.364904 125.340518 59.167805 126.951075 68.000138 C 127.071266 68.463027 126.919025 69.110535 127.538675 69.233615 C 125.311138 80.845953 123.120994 92.487723 120.340579 104.009088 C 118.828846 110.211254 117.220959 116.389339 114.940004 122.380128 C 113.700703 125.379536 112.440035 128.649185 109.809191 130.779006 C 108.139874 131.150922 106.940636 129.879986 105.92035 128.740157 C 104.160222 126.489932 103.081175 123.830332 102.028837 121.178759 C 98.540632 111.658783 96.409248 101.750837 94.248484 91.869647 C 92.611218 84.179818 91.158244 76.428448 89.64651 68.709187 C 88.9681 64.786678 88.041295 60.92571 87.515126 57.005877 C 87.424315 56.944337 87.207972 56.821257 87.11449 56.759716 C 87.979864 52.157592 88.903998 47.526035 89.862854 42.92391 C 91.994238 32.764452 94.187053 22.604995 97.336053 12.723805 C 98.44715 9.448804 99.65173 6.17648 101.441238 3.241287 C 102.119648 2.069351 103.110555 1.173007 104.130842 0.308771 Z M 104.130842 0.308771" stroke="#F6A2AD" stroke-width=".094"/></g><g clip-path="url(#e)"><path transform="matrix(1.46252 0 0 1.45992 .37 91.412)" fill="#EB7077" d="M 142.760177 5.652052 C 143.871275 3.519555 145.230767 1.143575 147.639925 0.340879 C 159.899391 0.276663 172.158856 0.308771 184.420993 0.308771 C 183.280515 1.451275 182.070594 2.593779 181.298702 4.046659 C 178.918923 8.3063 177.530051 13.031505 176.109128 17.69517 C 172.468681 30.540984 169.899268 43.665066 167.468743 56.789149 C 165.209155 69.728611 162.799996 82.668073 160.048961 95.545995 C 158.63071 102.029105 157.151027 108.480106 155.270708 114.88027 C 154.060787 118.829535 152.800118 122.810908 150.820976 126.489932 C 149.859449 128.151514 148.751023 129.981661 146.929464 130.840546 C 135.230889 130.931518 123.489579 130.840546 111.791004 130.869978 C 111.139303 130.869978 110.460892 130.869978 109.809191 130.781681 C 112.440035 128.649185 113.700703 125.379536 114.940004 122.380128 C 117.220959 116.389339 118.828846 110.211254 120.340579 104.009088 C 123.120994 92.487723 125.311138 80.845953 127.538675 69.233615 C 130.220266 54.25798 133.030061 39.27967 136.619761 24.488655 C 138.281065 18.096518 139.888951 11.610733 142.760177 5.652052 Z M 142.760177 5.652052" stroke="#EB7077" stroke-width=".094"/></g><g clip-path="url(#f)"><path fill="#F6A2AD" d="M 270.089844 91.863281 C 271.535156 91.863281 273.027344 91.816406 274.460938 91.863281 C 276.816406 93.082031 278.484375 95.15625 279.976562 97.273438 C 282.417969 101.152344 283.953125 105.523438 285.53125 109.804688 C 289.277344 121.304688 292.085938 133.113281 294.660156 144.925781 C 298.082031 160.839844 301.066406 176.847656 304.003906 192.847656 C 304.722656 196.683594 305.453125 200.558594 305.90625 204.4375 C 306.082031 204.617188 306.445312 204.976562 306.578125 205.113281 C 304.953125 207.367188 304.324219 210.070312 303.417969 212.640625 C 300.566406 221.792969 298.722656 231.261719 297.144531 240.691406 C 295.917969 248.078125 294.25 255.421875 291.953125 262.542969 C 290.226562 267.828125 288.152344 273.054688 284.714844 277.464844 C 283.089844 279.597656 280.882812 281.21875 278.4375 282.296875 C 274.695312 282.707031 272.488281 279.101562 270.671875 276.429688 C 266.929688 269.902344 264.898438 262.589844 262.730469 255.464844 C 255.59375 229.097656 250.945312 202.09375 245.925781 175.269531 C 245.882812 174.863281 245.648438 174.5 245.296875 174.320312 C 248.851562 155.160156 252.613281 136 257.933594 117.246094 C 260.011719 110.4375 262.042969 103.539062 265.527344 97.316406 C 266.652344 95.199219 268.421875 93.53125 270.089844 91.863281 Z M 270.089844 91.863281"/></g><g clip-path="url(#g)"><path transform="matrix(1.46252 0 0 1.45992 .37 91.412)" fill="none" d="M 184.420993 0.308771 C 185.409228 0.308771 186.429515 0.276663 187.409738 0.308771 C 189.020295 1.143575 190.160773 2.564347 191.181059 4.014551 C 192.850377 6.671476 193.900043 9.665532 194.97909 12.598049 C 197.54049 20.475174 199.460873 28.563676 201.221001 36.654853 C 203.560716 47.555467 205.601289 58.520297 207.609812 69.479775 C 208.101259 72.107267 208.600718 74.761516 208.910544 77.41844 C 209.030734 77.54152 209.279129 77.78768 209.36994 77.881328 C 208.258842 79.425181 207.828826 81.276733 207.209175 83.037313 C 205.259413 89.30637 203.998745 95.792155 202.919698 102.251184 C 202.081033 107.310845 200.940556 112.341075 199.370062 117.218792 C 198.189521 120.838951 196.771269 124.418976 194.42087 127.43979 C 193.309773 128.900697 191.80071 130.011093 190.128722 130.749573 C 187.569992 131.030517 186.06093 128.560889 184.818958 126.730741 C 182.260228 122.259724 180.871356 117.2509 179.389003 112.370507 C 174.509255 94.309843 171.330875 75.813048 167.898759 57.439333 C 167.869379 57.161065 167.709124 56.912229 167.468743 56.789149 C 169.899268 43.665066 172.471352 30.540984 176.109128 17.69517 C 177.530051 13.031505 178.918923 8.3063 181.301373 4.043984 C 182.070594 2.593779 183.280515 1.451275 184.420993 0.308771 Z M 184.420993 0.308771" stroke="#F6A2AD" stroke-width=".094"/></g><g clip-path="url(#h)"><path fill="#F6A2AD" d="M 0.414062 194.425781 C 1.589844 194.335938 2.765625 194.15625 3.984375 194.15625 L 53.210938 194.15625 C 55.289062 194.425781 57.457031 194.246094 59.445312 195.148438 C 62.335938 196.320312 64.910156 198.304688 66.804688 200.785156 C 67.03125 200.648438 67.441406 200.289062 67.664062 200.109375 C 66.582031 207.589844 64.820312 214.984375 63.328125 222.425781 C 60.9375 233.742188 58.40625 245.054688 55.246094 256.238281 C 53.210938 263.1875 51.089844 270.164062 47.703125 276.617188 C 46.527344 278.867188 44.722656 280.765625 42.6875 282.339844 C 41.921875 282.472656 41.335938 281.933594 40.703125 281.523438 C 38.578125 280.179688 37.359375 277.832031 36.050781 275.714844 C 29.863281 261.652344 29.1875 246.089844 25.347656 231.394531 C 23.40625 224.046875 21.011719 216.742188 17.488281 209.980469 C 15.320312 205.925781 12.65625 202.046875 9.179688 198.9375 C 6.605469 196.863281 3.625 195.195312 0.417969 194.425781 Z M 0.414062 194.425781"/></g><g clip-path="url(#i)"><path transform="matrix(1.46252 0 0 1.45992 .37 91.412)" fill="none" d="M 0.0295502 70.560739 C 0.833493 70.499199 1.637437 70.376119 2.47076 70.376119 L 36.129536 70.376119 C 37.550459 70.560739 39.032813 70.437659 40.392305 71.055735 C 42.368776 71.858431 44.128904 73.217664 45.424294 74.916704 C 45.579207 74.823056 45.859652 74.576896 46.011894 74.453816 C 45.272053 79.577693 44.067473 84.642706 43.047187 89.739826 C 41.412591 97.491196 39.681843 105.239889 37.521079 112.900286 C 36.129536 117.660275 34.679233 122.438992 32.363557 126.859173 C 31.559613 128.400349 30.325654 129.700717 28.934111 130.779006 C 28.410614 130.869978 28.009977 130.500738 27.57729 130.219794 C 26.124317 129.299369 25.290994 127.691301 24.39624 126.241097 C 20.165522 116.608743 19.703455 105.948938 17.077953 95.883128 C 15.750512 90.850223 14.113246 85.84675 11.704087 81.215193 C 10.221733 78.437864 8.400174 75.78094 6.023067 73.651119 C 4.262939 72.230347 2.225036 71.087843 0.0322211 70.560739 Z M 0.0295502 70.560739" stroke="#F6A2AD" stroke-width=".094"/></g><g clip-path="url(#j)"><path fill="#EB7077" d="M 310.554688 199.117188 C 313.394531 195.914062 317.648438 193.886719 321.933594 194.066406 L 358.964844 194.066406 C 364.113281 194.15625 369.304688 193.886719 374.453125 194.203125 C 372.917969 195.238281 371.074219 195.644531 369.453125 196.503906 C 363.804688 199.070312 358.964844 203.355469 355.894531 208.71875 C 350.980469 217.285156 349.253906 227.113281 347.804688 236.761719 C 346.375 246.222656 346.417969 256.003906 343.347656 265.203125 C 341.269531 271.65625 338.09375 278.152344 332.640625 282.386719 C 315.660156 282.558594 298.679688 282.429688 281.746094 282.472656 C 280.605469 282.472656 279.523438 282.515625 278.4375 282.296875 C 280.882812 281.21875 283.089844 279.597656 284.714844 277.464844 C 288.152344 273.054688 290.226562 267.828125 291.953125 262.542969 C 294.25 255.421875 295.917969 248.078125 297.144531 240.691406 C 298.722656 231.261719 300.566406 221.792969 303.417969 212.640625 C 304.324219 210.070312 304.953125 207.367188 306.578125 205.113281 C 307.9375 203.128906 308.832031 200.828125 310.554688 199.117188 Z M 310.554688 199.117188"/></g><g clip-path="url(#k)"><path transform="matrix(1.46252 0 0 1.45992 .37 91.412)" fill="none" d="M 212.088923 73.7742 C 214.030673 71.580163 216.939292 70.191499 219.869277 70.314579 L 245.18948 70.314579 C 248.709736 70.376119 252.259373 70.191499 255.779629 70.408227 C 254.729962 71.117275 253.469294 71.395543 252.360867 71.984187 C 248.498735 73.742092 245.18948 76.677284 243.090147 80.350957 C 239.730145 86.218666 238.549604 92.950611 237.558698 99.559476 C 236.581145 106.03991 236.610525 112.739747 234.511192 119.040912 C 233.090269 123.461092 230.918821 127.910705 227.190235 130.811113 C 215.5798 130.928842 203.969365 130.840546 192.390981 130.869978 C 191.611076 130.869978 190.871234 130.89941 190.128722 130.749573 C 191.80071 130.011093 193.309773 128.900697 194.42087 127.43979 C 196.771269 124.418976 198.189521 120.838951 199.370062 117.218792 C 200.940556 112.341075 202.081033 107.310845 202.919698 102.251184 C 203.998745 95.792155 205.259413 89.30637 207.209175 83.037313 C 207.828826 81.276733 208.258842 79.425181 209.36994 77.881328 C 210.299415 76.522096 210.911053 74.946136 212.088923 73.7742 Z M 212.088923 73.7742" stroke="#EB7077" stroke-width=".094"/></g></svg>