<svg xmlns="http://www.w3.org/2000/svg" width="375" viewBox="0 0 375 375" height="375" version="1.0"><path fill="#83CD29" d="M 344.992188 172.050781 C 344.078125 172.050781 343.191406 172.242188 342.40625 172.6875 L 317.542969 187.082031 C 315.933594 188.011719 314.957031 189.765625 314.957031 191.632812 L 314.957031 220.371094 C 314.957031 222.238281 315.933594 223.992188 317.542969 224.925781 L 324.035156 228.675781 C 327.191406 230.234375 328.355469 230.210938 329.789062 230.210938 C 334.460938 230.210938 337.128906 227.367188 337.128906 222.429688 L 337.128906 194.074219 C 337.128906 193.671875 336.78125 193.386719 336.386719 193.386719 L 333.273438 193.386719 C 332.875 193.386719 332.535156 193.679688 332.535156 194.074219 L 332.535156 222.441406 C 332.535156 224.632812 330.261719 226.832031 326.570312 224.984375 L 319.820312 221.011719 C 319.582031 220.882812 319.398438 220.644531 319.398438 220.378906 L 319.398438 191.640625 C 319.398438 191.367188 319.578125 191.089844 319.820312 190.953125 L 344.632812 176.609375 C 344.863281 176.472656 345.140625 176.472656 345.371094 176.609375 L 370.179688 190.953125 C 370.417969 191.09375 370.601562 191.359375 370.601562 191.640625 L 370.601562 220.378906 C 370.601562 220.652344 370.464844 220.933594 370.234375 221.066406 L 345.371094 235.410156 C 345.152344 235.539062 344.855469 235.539062 344.632812 235.410156 L 338.246094 231.601562 C 338.054688 231.488281 337.792969 231.496094 337.609375 231.601562 C 335.847656 232.601562 335.515625 232.71875 333.863281 233.292969 C 333.457031 233.433594 332.835938 233.65625 334.074219 234.351562 L 342.414062 239.28125 C 343.210938 239.742188 344.09375 239.96875 345.003906 239.96875 C 345.921875 239.96875 346.792969 239.75 347.589844 239.28125 L 372.453125 224.9375 C 374.0625 224 375.039062 222.253906 375.039062 220.386719 L 375.039062 191.648438 C 375.039062 189.78125 374.0625 188.027344 372.453125 187.09375 L 347.589844 172.699219 C 346.808594 172.253906 345.917969 172.066406 345.003906 172.066406 Z M 351.644531 192.585938 C 344.5625 192.585938 340.347656 195.609375 340.347656 200.632812 C 340.347656 206.074219 344.53125 207.578125 351.328125 208.253906 C 359.457031 209.050781 360.089844 210.246094 360.089844 211.851562 C 360.089844 214.632812 357.878906 215.820312 352.648438 215.820312 C 346.078125 215.820312 344.632812 214.175781 344.148438 210.890625 C 344.089844 210.539062 343.820312 210.257812 343.464844 210.257812 L 340.234375 210.257812 C 340.03125 210.261719 339.859375 210.335938 339.71875 210.480469 C 339.574219 210.621094 339.5 210.796875 339.496094 211 C 339.496094 215.195312 341.773438 220.15625 352.640625 220.15625 C 360.507812 220.15625 365.046875 217.066406 365.046875 211.632812 C 365.046875 206.261719 361.378906 204.8125 353.75 203.800781 C 346.046875 202.769531 345.304688 202.277344 345.304688 200.464844 C 345.304688 198.96875 345.925781 196.972656 351.636719 196.972656 C 356.738281 196.972656 358.625 198.074219 359.398438 201.523438 C 359.464844 201.847656 359.75 202.109375 360.082031 202.109375 L 363.3125 202.109375 C 363.511719 202.109375 363.703125 201.988281 363.839844 201.847656 C 363.976562 201.695312 364.070312 201.523438 364.050781 201.316406 C 363.550781 195.378906 359.601562 192.582031 351.644531 192.582031 Z M 351.644531 192.585938"/><path fill="#404137" d="M 198.824219 134.375 C 198.539062 134.378906 198.277344 134.449219 198.03125 134.589844 C 197.789062 134.730469 197.59375 134.925781 197.453125 135.171875 C 197.3125 135.417969 197.242188 135.679688 197.238281 135.964844 L 197.238281 176.453125 C 197.238281 176.851562 197.054688 177.207031 196.710938 177.40625 C 196.34375 177.621094 195.972656 177.621094 195.601562 177.40625 L 189.003906 173.59375 C 188.515625 173.3125 187.988281 173.167969 187.421875 173.167969 C 186.855469 173.167969 186.328125 173.3125 185.835938 173.59375 L 159.496094 188.835938 C 158.511719 189.40625 157.914062 190.503906 157.914062 191.640625 L 157.914062 222.128906 C 157.914062 222.695312 158.054688 223.226562 158.335938 223.714844 C 158.621094 224.207031 159.007812 224.59375 159.496094 224.878906 L 185.839844 240.121094 C 186.328125 240.40625 186.855469 240.550781 187.421875 240.550781 C 187.988281 240.550781 188.515625 240.40625 189.003906 240.121094 L 215.347656 224.878906 C 215.835938 224.59375 216.222656 224.207031 216.507812 223.714844 C 216.789062 223.226562 216.929688 222.695312 216.929688 222.128906 L 216.929688 146.125 C 216.929688 144.96875 216.300781 143.886719 215.292969 143.320312 L 199.617188 134.53125 C 199.371094 134.394531 199.097656 134.371094 198.824219 134.371094 Z M 29.375 172.429688 C 28.871094 172.449219 28.398438 172.539062 27.949219 172.800781 L 1.609375 188.042969 C 1.117188 188.324219 0.730469 188.714844 0.445312 189.207031 C 0.164062 189.695312 0.0234375 190.226562 0.0234375 190.792969 L 0.078125 231.707031 C 0.078125 232.277344 0.371094 232.804688 0.871094 233.082031 C 1.359375 233.378906 1.964844 233.378906 2.453125 233.082031 L 18.078125 224.085938 C 19.070312 223.496094 19.714844 222.46875 19.714844 221.335938 L 19.714844 202.226562 C 19.714844 201.085938 20.3125 200.042969 21.300781 199.476562 L 27.949219 195.613281 C 28.441406 195.324219 28.96875 195.183594 29.535156 195.1875 C 30.101562 195.183594 30.628906 195.324219 31.117188 195.613281 L 37.765625 199.472656 C 38.753906 200.039062 39.351562 201.085938 39.351562 202.222656 L 39.351562 221.328125 C 39.351562 222.46875 40.011719 223.5 40.984375 224.082031 L 56.609375 233.078125 C 57.101562 233.371094 57.707031 233.371094 58.195312 233.078125 C 58.679688 232.800781 58.988281 232.273438 58.988281 231.703125 L 59.039062 190.792969 C 59.042969 190.222656 58.902344 189.691406 58.621094 189.199219 C 58.335938 188.707031 57.949219 188.320312 57.457031 188.039062 L 31.117188 172.804688 C 30.671875 172.542969 30.195312 172.453125 29.691406 172.433594 L 29.375 172.433594 Z M 266.070312 172.800781 C 265.503906 172.800781 264.976562 172.941406 264.488281 173.222656 L 238.144531 188.46875 C 237.164062 189.039062 236.5625 190.078125 236.5625 191.21875 L 236.5625 221.703125 C 236.5625 222.847656 237.207031 223.886719 238.199219 224.453125 L 264.328125 239.386719 C 265.292969 239.9375 266.46875 239.980469 267.441406 239.4375 L 283.277344 230.601562 C 283.78125 230.320312 284.121094 229.796875 284.121094 229.222656 C 284.125 228.652344 283.828125 228.132812 283.328125 227.847656 L 256.828125 212.605469 C 256.332031 212.320312 255.984375 211.746094 255.984375 211.175781 L 255.984375 201.644531 C 255.984375 201.074219 256.335938 200.550781 256.828125 200.269531 L 265.0625 195.503906 C 265.554688 195.21875 266.15625 195.21875 266.648438 195.503906 L 274.902344 200.269531 C 275.148438 200.410156 275.339844 200.601562 275.484375 200.847656 C 275.625 201.09375 275.695312 201.359375 275.695312 201.644531 L 275.695312 209.160156 C 275.695312 209.441406 275.765625 209.707031 275.90625 209.953125 C 276.046875 210.199219 276.242188 210.394531 276.484375 210.535156 C 276.980469 210.820312 277.578125 210.820312 278.070312 210.535156 L 293.851562 201.324219 C 294.832031 200.753906 295.4375 199.707031 295.4375 198.574219 L 295.4375 191.21875 C 295.4375 190.648438 295.296875 190.121094 295.011719 189.628906 C 294.730469 189.136719 294.34375 188.75 293.851562 188.464844 L 267.671875 173.222656 C 267.179688 172.9375 266.652344 172.796875 266.085938 172.800781 Z M 187.3125 195.558594 C 187.460938 195.558594 187.601562 195.59375 187.734375 195.664062 L 196.761719 200.90625 C 197.003906 201.046875 197.183594 201.308594 197.183594 201.59375 L 197.183594 212.070312 C 197.183594 212.355469 197.007812 212.617188 196.761719 212.757812 L 187.734375 218 C 187.488281 218.140625 187.1875 218.140625 186.941406 218 L 177.914062 212.757812 C 177.667969 212.617188 177.492188 212.355469 177.492188 212.070312 L 177.492188 201.59375 C 177.492188 201.3125 177.671875 201.050781 177.914062 200.90625 L 186.941406 195.667969 C 187.066406 195.597656 187.171875 195.5625 187.3125 195.5625 Z M 187.3125 195.558594"/><path fill="#83CD29" d="M 108.5 172.640625 C 107.933594 172.640625 107.40625 172.78125 106.914062 173.066406 L 80.574219 188.253906 C 79.589844 188.824219 78.992188 189.921875 78.992188 191.058594 L 78.992188 221.542969 C 78.988281 222.113281 79.128906 222.640625 79.414062 223.132812 C 79.695312 223.625 80.082031 224.011719 80.574219 224.296875 L 106.914062 239.539062 C 107.40625 239.824219 107.933594 239.964844 108.5 239.964844 C 109.066406 239.964844 109.59375 239.824219 110.082031 239.539062 L 136.425781 224.296875 C 136.914062 224.011719 137.300781 223.625 137.585938 223.132812 C 137.867188 222.640625 138.007812 222.113281 138.007812 221.542969 L 138.007812 191.0625 C 138.007812 189.921875 137.410156 188.824219 136.421875 188.257812 L 110.082031 173.066406 C 109.59375 172.78125 109.0625 172.640625 108.496094 172.644531 Z M 266.019531 199.84375 C 265.914062 199.84375 265.796875 199.84375 265.703125 199.898438 L 260.636719 202.863281 C 260.429688 202.976562 260.324219 203.152344 260.320312 203.390625 L 260.320312 209.210938 C 260.320312 209.433594 260.445312 209.632812 260.636719 209.742188 L 265.703125 212.652344 C 265.894531 212.773438 266.089844 212.773438 266.28125 212.652344 L 271.351562 209.742188 C 271.539062 209.632812 271.667969 209.433594 271.667969 209.210938 L 271.667969 203.390625 C 271.667969 203.171875 271.539062 202.972656 271.351562 202.859375 L 266.28125 199.894531 C 266.1875 199.839844 266.125 199.84375 266.019531 199.84375 Z M 266.019531 199.84375"/></svg>