<svg xmlns="http://www.w3.org/2000/svg" xmlns:xlink="http://www.w3.org/1999/xlink" width="375" viewBox="0 0 375 375" height="375" version="1.0"><defs><clipPath id="a"><path d="M 0 88.636719 L 375 88.636719 L 375 286.636719 L 0 286.636719 Z M 0 88.636719"/></clipPath><clipPath id="b"><path d="M 375 187.636719 C 375 189.253906 374.925781 190.867188 374.773438 192.480469 C 374.625 194.09375 374.398438 195.707031 374.097656 197.3125 C 373.796875 198.921875 373.421875 200.523438 372.96875 202.121094 C 372.519531 203.71875 371.996094 205.3125 371.398438 206.898438 C 370.796875 208.480469 370.125 210.058594 369.378906 211.625 C 368.636719 213.191406 367.816406 214.75 366.925781 216.292969 C 366.035156 217.839844 365.074219 219.375 364.039062 220.894531 C 363.003906 222.417969 361.902344 223.921875 360.726562 225.417969 C 359.554688 226.910156 358.308594 228.386719 356.996094 229.847656 C 355.6875 231.308594 354.308594 232.75 352.859375 234.175781 C 351.414062 235.597656 349.902344 237.003906 348.324219 238.390625 C 346.746094 239.777344 345.105469 241.140625 343.402344 242.484375 C 341.695312 243.828125 339.929688 245.148438 338.101562 246.445312 C 336.273438 247.742188 334.386719 249.015625 332.4375 250.265625 C 330.492188 251.515625 328.488281 252.738281 326.429688 253.933594 C 324.367188 255.132812 322.253906 256.300781 320.082031 257.445312 C 317.914062 258.585938 315.691406 259.699219 313.417969 260.785156 C 311.144531 261.871094 308.820312 262.925781 306.449219 263.953125 C 304.078125 264.976562 301.660156 265.96875 299.195312 266.933594 C 296.730469 267.894531 294.222656 268.824219 291.667969 269.722656 C 289.117188 270.621094 286.527344 271.484375 283.894531 272.316406 C 281.261719 273.144531 278.59375 273.941406 275.886719 274.703125 C 273.179688 275.464844 270.441406 276.191406 267.667969 276.882812 C 264.890625 277.574219 262.089844 278.226562 259.253906 278.84375 C 256.417969 279.464844 253.554688 280.046875 250.667969 280.589844 C 247.777344 281.132812 244.863281 281.640625 241.929688 282.109375 C 238.992188 282.578125 236.035156 283.007812 233.058594 283.402344 C 230.082031 283.792969 227.089844 284.148438 224.078125 284.464844 C 221.070312 284.777344 218.046875 285.054688 215.011719 285.292969 C 211.976562 285.527344 208.933594 285.726562 205.878906 285.886719 C 202.824219 286.042969 199.765625 286.164062 196.699219 286.242188 C 193.636719 286.320312 190.570312 286.359375 187.5 286.359375 C 184.429688 286.359375 181.363281 286.320312 178.300781 286.242188 C 175.234375 286.164062 172.175781 286.042969 169.121094 285.886719 C 166.066406 285.726562 163.023438 285.527344 159.988281 285.292969 C 156.953125 285.054688 153.929688 284.777344 150.921875 284.464844 C 147.910156 284.148438 144.917969 283.792969 141.941406 283.402344 C 138.964844 283.007812 136.007812 282.578125 133.070312 282.109375 C 130.136719 281.640625 127.222656 281.132812 124.332031 280.589844 C 121.445312 280.046875 118.582031 279.464844 115.746094 278.84375 C 112.910156 278.226562 110.105469 277.574219 107.332031 276.882812 C 104.558594 276.191406 101.820312 275.464844 99.113281 274.703125 C 96.40625 273.941406 93.738281 273.144531 91.105469 272.316406 C 88.472656 271.484375 85.882812 270.621094 83.332031 269.722656 C 80.777344 268.824219 78.269531 267.894531 75.804688 266.933594 C 73.339844 265.96875 70.921875 264.976562 68.550781 263.953125 C 66.179688 262.925781 63.855469 261.871094 61.582031 260.785156 C 59.308594 259.703125 57.085938 258.585938 54.917969 257.445312 C 52.746094 256.300781 50.632812 255.132812 48.570312 253.9375 C 46.511719 252.738281 44.507812 251.515625 42.558594 250.265625 C 40.613281 249.015625 38.726562 247.742188 36.898438 246.445312 C 35.070312 245.148438 33.304688 243.828125 31.597656 242.484375 C 29.894531 241.140625 28.253906 239.777344 26.675781 238.390625 C 25.097656 237.003906 23.585938 235.597656 22.140625 234.175781 C 20.691406 232.75 19.3125 231.308594 18.003906 229.847656 C 16.691406 228.386719 15.445312 226.910156 14.273438 225.417969 C 13.097656 223.921875 11.996094 222.417969 10.960938 220.894531 C 9.925781 219.375 8.964844 217.839844 8.074219 216.292969 C 7.183594 214.75 6.363281 213.191406 5.621094 211.625 C 4.875 210.058594 4.203125 208.480469 3.601562 206.898438 C 3.003906 205.3125 2.480469 203.71875 2.03125 202.121094 C 1.578125 200.523438 1.203125 198.921875 0.902344 197.3125 C 0.601562 195.707031 0.375 194.09375 0.226562 192.480469 C 0.0742188 190.867188 0 189.253906 0 187.636719 C 0 186.019531 0.0742188 184.40625 0.226562 182.792969 C 0.375 181.179688 0.601562 179.566406 0.902344 177.960938 C 1.203125 176.351562 1.578125 174.75 2.03125 173.152344 C 2.480469 171.550781 3.003906 169.960938 3.601562 168.375 C 4.203125 166.792969 4.875 165.214844 5.621094 163.648438 C 6.363281 162.082031 7.183594 160.523438 8.074219 158.976562 C 8.964844 157.433594 9.925781 155.898438 10.960938 154.378906 C 11.996094 152.855469 13.097656 151.347656 14.273438 149.855469 C 15.445312 148.363281 16.691406 146.886719 18.003906 145.425781 C 19.3125 143.964844 20.691406 142.523438 22.140625 141.097656 C 23.585938 139.671875 25.097656 138.269531 26.675781 136.882812 C 28.253906 135.496094 29.894531 134.132812 31.597656 132.789062 C 33.304688 131.445312 35.070312 130.125 36.898438 128.828125 C 38.726562 127.527344 40.613281 126.253906 42.558594 125.007812 C 44.507812 123.757812 46.511719 122.535156 48.570312 121.335938 C 50.632812 120.140625 52.746094 118.96875 54.917969 117.828125 C 57.085938 116.683594 59.308594 115.570312 61.582031 114.488281 C 63.855469 113.402344 66.179688 112.347656 68.550781 111.320312 C 70.921875 110.296875 73.339844 109.304688 75.804688 108.339844 C 78.269531 107.378906 80.777344 106.449219 83.332031 105.550781 C 85.882812 104.652344 88.472656 103.789062 91.105469 102.957031 C 93.738281 102.128906 96.40625 101.332031 99.113281 100.570312 C 101.820312 99.808594 104.558594 99.082031 107.332031 98.390625 C 110.105469 97.699219 112.910156 97.046875 115.746094 96.425781 C 118.582031 95.808594 121.445312 95.226562 124.332031 94.683594 C 127.222656 94.140625 130.136719 93.632812 133.070312 93.164062 C 136.007812 92.695312 138.964844 92.261719 141.941406 91.871094 C 144.917969 91.476562 147.910156 91.125 150.921875 90.808594 C 153.929688 90.492188 156.953125 90.21875 159.988281 89.980469 C 163.023438 89.742188 166.066406 89.546875 169.121094 89.386719 C 172.175781 89.230469 175.234375 89.109375 178.300781 89.03125 C 181.363281 88.953125 184.429688 88.914062 187.5 88.914062 C 190.570312 88.914062 193.636719 88.953125 196.699219 89.03125 C 199.765625 89.109375 202.824219 89.230469 205.878906 89.386719 C 208.933594 89.546875 211.976562 89.742188 215.011719 89.980469 C 218.046875 90.21875 221.070312 90.492188 224.078125 90.808594 C 227.089844 91.125 230.082031 91.476562 233.058594 91.871094 C 236.035156 92.261719 238.992188 92.695312 241.929688 93.164062 C 244.863281 93.632812 247.777344 94.140625 250.667969 94.683594 C 253.554688 95.226562 256.417969 95.808594 259.253906 96.425781 C 262.089844 97.046875 264.894531 97.699219 267.667969 98.390625 C 270.441406 99.082031 273.179688 99.808594 275.886719 100.570312 C 278.59375 101.332031 281.261719 102.128906 283.894531 102.957031 C 286.527344 103.789062 289.117188 104.652344 291.667969 105.550781 C 294.222656 106.449219 296.730469 107.378906 299.195312 108.339844 C 301.660156 109.304688 304.078125 110.296875 306.449219 111.320312 C 308.820312 112.347656 311.144531 113.402344 313.417969 114.488281 C 315.691406 115.570312 317.914062 116.683594 320.082031 117.828125 C 322.253906 118.96875 324.367188 120.140625 326.429688 121.335938 C 328.488281 122.535156 330.492188 123.757812 332.4375 125.007812 C 334.386719 126.253906 336.273438 127.527344 338.101562 128.828125 C 339.929688 130.125 341.695312 131.445312 343.402344 132.789062 C 345.105469 134.132812 346.746094 135.496094 348.324219 136.882812 C 349.902344 138.269531 351.414062 139.671875 352.859375 141.097656 C 354.308594 142.523438 355.6875 143.964844 356.996094 145.425781 C 358.308594 146.886719 359.554688 148.363281 360.726562 149.855469 C 361.902344 151.347656 363.003906 152.855469 364.039062 154.378906 C 365.074219 155.898438 366.035156 157.433594 366.925781 158.976562 C 367.816406 160.523438 368.636719 162.082031 369.378906 163.648438 C 370.125 165.214844 370.796875 166.792969 371.398438 168.375 C 371.996094 169.960938 372.519531 171.550781 372.96875 173.152344 C 373.421875 174.75 373.796875 176.351562 374.097656 177.960938 C 374.398438 179.566406 374.625 181.179688 374.773438 182.792969 C 374.925781 184.40625 375 186.019531 375 187.636719 Z M 375 187.636719"/></clipPath><radialGradient gradientTransform="matrix(.99929 0 0 1.00071 112.008 209.08)" xmlns:xlink="http://www.w3.org/1999/xlink" gradientUnits="userSpaceOnUse" xlink:type="simple" r="246.411" xlink:actuate="onLoad" cx=".568" id="c" cy="-85.388" xlink:show="other" fx=".568" fy="-85.388"><stop stop-color="#FEFEFF" offset="0"/><stop stop-color="#FDFDFE" offset=".004"/><stop stop-color="#FCFCFD" offset=".008"/><stop stop-color="#FAFBFC" offset=".012"/><stop stop-color="#F9FAFB" offset=".016"/><stop stop-color="#F7F9FB" offset=".02"/><stop stop-color="#F6F7FA" offset=".023"/><stop stop-color="#F5F6F9" offset=".027"/><stop stop-color="#F3F5F8" offset=".031"/><stop stop-color="#F2F4F7" offset=".035"/><stop stop-color="#F0F3F6" offset=".039"/><stop stop-color="#EFF2F6" offset=".043"/><stop stop-color="#EEF1F5" offset=".047"/><stop stop-color="#ECEFF4" offset=".051"/><stop stop-color="#EBEEF3" offset=".055"/><stop stop-color="#E9EDF2" offset=".059"/><stop stop-color="#E8ECF2" offset=".063"/><stop stop-color="#E7EBF1" offset=".066"/><stop stop-color="#E5EAF0" offset=".07"/><stop stop-color="#E4E8EF" offset=".074"/><stop stop-color="#E2E7EE" offset=".078"/><stop stop-color="#E1E6EE" offset=".082"/><stop stop-color="#E0E5ED" offset=".086"/><stop stop-color="#DEE4EC" offset=".09"/><stop stop-color="#DDE3EB" offset=".094"/><stop stop-color="#DBE2EA" offset=".098"/><stop stop-color="#DAE0E9" offset=".102"/><stop stop-color="#D9DFE9" offset=".105"/><stop stop-color="#D7DEE8" offset=".109"/><stop stop-color="#D6DDE7" offset=".113"/><stop stop-color="#D4DCE6" offset=".117"/><stop stop-color="#D3DBE5" offset=".121"/><stop stop-color="#D2D9E5" offset=".125"/><stop stop-color="#D0D8E4" offset=".129"/><stop stop-color="#CFD7E3" offset=".133"/><stop stop-color="#CDD6E2" offset=".137"/><stop stop-color="#CCD5E1" offset=".141"/><stop stop-color="#CBD4E1" offset=".145"/><stop stop-color="#C9D3E0" offset=".148"/><stop stop-color="#C8D1DF" offset=".152"/><stop stop-color="#C6D0DE" offset=".156"/><stop stop-color="#C5CFDD" offset=".16"/><stop stop-color="#C4CEDC" offset=".164"/><stop stop-color="#C2CDDC" offset=".168"/><stop stop-color="#C1CCDB" offset=".172"/><stop stop-color="#BFCADA" offset=".176"/><stop stop-color="#BEC9D9" offset=".18"/><stop stop-color="#BDC8D8" offset=".184"/><stop stop-color="#BBC7D8" offset=".188"/><stop stop-color="#BAC6D7" offset=".191"/><stop stop-color="#B8C5D6" offset=".195"/><stop stop-color="#B7C3D5" offset=".199"/><stop stop-color="#B6C2D4" offset=".203"/><stop stop-color="#B4C1D4" offset=".207"/><stop stop-color="#B3C0D3" offset=".211"/><stop stop-color="#B1BFD2" offset=".215"/><stop stop-color="#B0BED1" offset=".219"/><stop stop-color="#AFBDD0" offset=".223"/><stop stop-color="#ADBBCF" offset=".227"/><stop stop-color="#ACBACF" offset=".23"/><stop stop-color="#AAB9CE" offset=".234"/><stop stop-color="#A9B8CD" offset=".238"/><stop stop-color="#A8B7CC" offset=".242"/><stop stop-color="#A6B6CB" offset=".246"/><stop stop-color="#A5B4CB" offset=".25"/><stop stop-color="#A3B3CA" offset=".254"/><stop stop-color="#A2B2C9" offset=".258"/><stop stop-color="#A1B1C8" offset=".262"/><stop stop-color="#9FB0C7" offset=".266"/><stop stop-color="#9EAFC7" offset=".27"/><stop stop-color="#9CAEC6" offset=".273"/><stop stop-color="#9BACC5" offset=".277"/><stop stop-color="#9AABC4" offset=".281"/><stop stop-color="#98AAC3" offset=".285"/><stop stop-color="#97A9C2" offset=".289"/><stop stop-color="#95A8C2" offset=".293"/><stop stop-color="#94A7C1" offset=".297"/><stop stop-color="#93A5C0" offset=".301"/><stop stop-color="#91A4BF" offset=".305"/><stop stop-color="#90A3BE" offset=".309"/><stop stop-color="#8EA2BE" offset=".313"/><stop stop-color="#8DA1BD" offset=".316"/><stop stop-color="#8CA0BC" offset=".32"/><stop stop-color="#8A9FBB" offset=".324"/><stop stop-color="#899DBA" offset=".328"/><stop stop-color="#879CB9" offset=".332"/><stop stop-color="#869BB9" offset=".336"/><stop stop-color="#859AB8" offset=".34"/><stop stop-color="#8399B7" offset=".344"/><stop stop-color="#8298B6" offset=".348"/><stop stop-color="#8096B5" offset=".352"/><stop stop-color="#7F95B5" offset=".355"/><stop stop-color="#7E94B4" offset=".359"/><stop stop-color="#7C93B3" offset=".363"/><stop stop-color="#7B92B2" offset=".367"/><stop stop-color="#7991B1" offset=".371"/><stop stop-color="#788FB1" offset=".375"/><stop stop-color="#778EB0" offset=".379"/><stop stop-color="#758DAF" offset=".383"/><stop stop-color="#748CAE" offset=".387"/><stop stop-color="#728BAD" offset=".391"/><stop stop-color="#718AAC" offset=".395"/><stop stop-color="#7089AC" offset=".398"/><stop stop-color="#6E87AB" offset=".402"/><stop stop-color="#6D86AA" offset=".406"/><stop stop-color="#6B85A9" offset=".41"/><stop stop-color="#6A84A8" offset=".414"/><stop stop-color="#6983A8" offset=".418"/><stop stop-color="#6782A7" offset=".422"/><stop stop-color="#6680A6" offset=".426"/><stop stop-color="#647FA5" offset=".43"/><stop stop-color="#637EA4" offset=".434"/><stop stop-color="#627DA4" offset=".438"/><stop stop-color="#607CA3" offset=".441"/><stop stop-color="#5F7BA2" offset=".445"/><stop stop-color="#5D7AA1" offset=".449"/><stop stop-color="#5C78A0" offset=".453"/><stop stop-color="#5B779F" offset=".457"/><stop stop-color="#59769F" offset=".461"/><stop stop-color="#58759E" offset=".465"/><stop stop-color="#56749D" offset=".469"/><stop stop-color="#55739C" offset=".473"/><stop stop-color="#54719B" offset=".477"/><stop stop-color="#52709B" offset=".48"/><stop stop-color="#516F9A" offset=".484"/><stop stop-color="#4F6E99" offset=".488"/><stop stop-color="#4E6D98" offset=".492"/><stop stop-color="#4D6C97" offset=".496"/><stop stop-color="#4C6B96" offset=".5"/><stop stop-color="#4C6A96" offset=".504"/><stop stop-color="#4B6A95" offset=".508"/><stop stop-color="#4B6994" offset=".512"/><stop stop-color="#4B6893" offset=".516"/><stop stop-color="#4A6892" offset=".52"/><stop stop-color="#4A6791" offset=".523"/><stop stop-color="#4A6790" offset=".527"/><stop stop-color="#49668F" offset=".531"/><stop stop-color="#49658E" offset=".535"/><stop stop-color="#49658D" offset=".539"/><stop stop-color="#48648C" offset=".543"/><stop stop-color="#48648B" offset=".547"/><stop stop-color="#48638A" offset=".551"/><stop stop-color="#476289" offset=".555"/><stop stop-color="#476289" offset=".559"/><stop stop-color="#476188" offset=".563"/><stop stop-color="#466187" offset=".566"/><stop stop-color="#466086" offset=".57"/><stop stop-color="#466085" offset=".574"/><stop stop-color="#455F84" offset=".578"/><stop stop-color="#455E83" offset=".582"/><stop stop-color="#455E82" offset=".586"/><stop stop-color="#445D81" offset=".59"/><stop stop-color="#445D80" offset=".594"/><stop stop-color="#445C7F" offset=".598"/><stop stop-color="#435B7E" offset=".602"/><stop stop-color="#435B7D" offset=".605"/><stop stop-color="#435A7C" offset=".609"/><stop stop-color="#435A7C" offset=".613"/><stop stop-color="#42597B" offset=".617"/><stop stop-color="#42587A" offset=".621"/><stop stop-color="#425879" offset=".625"/><stop stop-color="#415778" offset=".629"/><stop stop-color="#415777" offset=".633"/><stop stop-color="#415676" offset=".637"/><stop stop-color="#405575" offset=".641"/><stop stop-color="#405574" offset=".645"/><stop stop-color="#405473" offset=".648"/><stop stop-color="#3F5472" offset=".652"/><stop stop-color="#3F5371" offset=".656"/><stop stop-color="#3F5270" offset=".66"/><stop stop-color="#3E526F" offset=".664"/><stop stop-color="#3E516E" offset=".668"/><stop stop-color="#3E516E" offset=".672"/><stop stop-color="#3D506D" offset=".676"/><stop stop-color="#3D4F6C" offset=".68"/><stop stop-color="#3D4F6B" offset=".684"/><stop stop-color="#3C4E6A" offset=".688"/><stop stop-color="#3C4E69" offset=".691"/><stop stop-color="#3C4D68" offset=".695"/><stop stop-color="#3B4D67" offset=".699"/><stop stop-color="#3B4C66" offset=".703"/><stop stop-color="#3B4B65" offset=".707"/><stop stop-color="#3B4B64" offset=".711"/><stop stop-color="#3A4A63" offset=".715"/><stop stop-color="#3A4A62" offset=".719"/><stop stop-color="#3A4961" offset=".723"/><stop stop-color="#394861" offset=".727"/><stop stop-color="#394860" offset=".73"/><stop stop-color="#39475F" offset=".734"/><stop stop-color="#38475E" offset=".738"/><stop stop-color="#38465D" offset=".742"/><stop stop-color="#38455C" offset=".746"/><stop stop-color="#37455B" offset=".75"/><stop stop-color="#37445A" offset=".754"/><stop stop-color="#374459" offset=".758"/><stop stop-color="#364358" offset=".762"/><stop stop-color="#364257" offset=".766"/><stop stop-color="#364256" offset=".77"/><stop stop-color="#354155" offset=".773"/><stop stop-color="#354154" offset=".777"/><stop stop-color="#354054" offset=".781"/><stop stop-color="#343F53" offset=".785"/><stop stop-color="#343F52" offset=".789"/><stop stop-color="#343E51" offset=".793"/><stop stop-color="#333E50" offset=".797"/><stop stop-color="#333D4F" offset=".801"/><stop stop-color="#333C4E" offset=".805"/><stop stop-color="#323C4D" offset=".809"/><stop stop-color="#323B4C" offset=".813"/><stop stop-color="#323B4B" offset=".816"/><stop stop-color="#323A4A" offset=".82"/><stop stop-color="#313A49" offset=".824"/><stop stop-color="#313948" offset=".828"/><stop stop-color="#313847" offset=".832"/><stop stop-color="#303846" offset=".836"/><stop stop-color="#303746" offset=".84"/><stop stop-color="#303745" offset=".844"/><stop stop-color="#2F3644" offset=".848"/><stop stop-color="#2F3543" offset=".852"/><stop stop-color="#2F3542" offset=".855"/><stop stop-color="#2E3441" offset=".859"/><stop stop-color="#2E3440" offset=".863"/><stop stop-color="#2E333F" offset=".867"/><stop stop-color="#2D323E" offset=".871"/><stop stop-color="#2D323D" offset=".875"/><stop stop-color="#2D313C" offset=".879"/><stop stop-color="#2C313B" offset=".883"/><stop stop-color="#2C303A" offset=".887"/><stop stop-color="#2C2F39" offset=".891"/><stop stop-color="#2B2F39" offset=".895"/><stop stop-color="#2B2E38" offset=".898"/><stop stop-color="#2B2E37" offset=".902"/><stop stop-color="#2A2D36" offset=".906"/><stop stop-color="#2A2C35" offset=".91"/><stop stop-color="#2A2C34" offset=".914"/><stop stop-color="#2A2B33" offset=".918"/><stop stop-color="#292B32" offset=".922"/><stop stop-color="#292A31" offset=".926"/><stop stop-color="#292930" offset=".93"/><stop stop-color="#28292F" offset=".934"/><stop stop-color="#28282E" offset=".938"/><stop stop-color="#28282D" offset=".941"/><stop stop-color="#27272C" offset=".945"/><stop stop-color="#27272C" offset=".949"/><stop stop-color="#27262B" offset=".953"/><stop stop-color="#26252A" offset=".957"/><stop stop-color="#262529" offset=".961"/><stop stop-color="#262428" offset=".965"/><stop stop-color="#252427" offset=".969"/><stop stop-color="#252326" offset=".973"/><stop stop-color="#252225" offset=".977"/><stop stop-color="#242224" offset=".98"/><stop stop-color="#242123" offset=".984"/><stop stop-color="#242122" offset=".988"/><stop stop-color="#232021" offset=".992"/><stop stop-color="#231F20" offset=".996"/><stop stop-color="#231F20" offset="1"/></radialGradient></defs><g clip-path="url(#a)"><g clip-path="url(#b)"><path fill="url(#c)" d="M 0 88.914062 L 0 286.359375 L 375 286.359375 L 375 88.914062 Z M 0 88.914062"/></g></g><path fill="#6181B6" d="M 367.675781 187.636719 C 367.675781 189.132812 367.601562 190.625 367.457031 192.121094 C 367.3125 193.613281 367.097656 195.105469 366.808594 196.59375 C 366.519531 198.082031 366.160156 199.566406 365.726562 201.046875 C 365.292969 202.527344 364.789062 204 364.214844 205.464844 C 363.636719 206.933594 362.992188 208.390625 362.277344 209.84375 C 361.558594 211.292969 360.773438 212.734375 359.917969 214.164062 C 359.0625 215.597656 358.136719 217.015625 357.144531 218.425781 C 356.148438 219.832031 355.089844 221.226562 353.960938 222.609375 C 352.832031 223.992188 351.636719 225.359375 350.375 226.710938 C 349.117188 228.0625 347.789062 229.398438 346.402344 230.71875 C 345.011719 232.035156 343.558594 233.335938 342.042969 234.621094 C 340.527344 235.902344 338.949219 237.167969 337.3125 238.410156 C 335.671875 239.652344 333.976562 240.875 332.21875 242.078125 C 330.460938 243.277344 328.648438 244.457031 326.777344 245.613281 C 324.90625 246.769531 322.980469 247.902344 321 249.011719 C 319.019531 250.117188 316.988281 251.199219 314.902344 252.257812 C 312.820312 253.316406 310.683594 254.347656 308.5 255.351562 C 306.3125 256.355469 304.082031 257.332031 301.800781 258.28125 C 299.523438 259.230469 297.199219 260.148438 294.832031 261.042969 C 292.460938 261.933594 290.050781 262.792969 287.601562 263.625 C 285.148438 264.453125 282.65625 265.253906 280.128906 266.023438 C 277.601562 266.792969 275.035156 267.53125 272.433594 268.234375 C 269.832031 268.941406 267.199219 269.613281 264.535156 270.25 C 261.871094 270.890625 259.175781 271.496094 256.449219 272.070312 C 253.726562 272.640625 250.976562 273.179688 248.199219 273.683594 C 245.421875 274.1875 242.625 274.65625 239.800781 275.089844 C 236.980469 275.523438 234.140625 275.921875 231.277344 276.289062 C 228.417969 276.652344 225.542969 276.976562 222.652344 277.269531 C 219.757812 277.5625 216.855469 277.816406 213.9375 278.035156 C 211.019531 278.257812 208.09375 278.4375 205.160156 278.585938 C 202.226562 278.734375 199.285156 278.84375 196.339844 278.914062 C 193.394531 278.988281 190.449219 279.027344 187.5 279.027344 C 184.550781 279.027344 181.605469 278.988281 178.660156 278.914062 C 175.714844 278.84375 172.773438 278.734375 169.839844 278.585938 C 166.90625 278.4375 163.980469 278.257812 161.0625 278.035156 C 158.144531 277.816406 155.242188 277.5625 152.347656 277.269531 C 149.457031 276.976562 146.582031 276.652344 143.722656 276.289062 C 140.859375 275.921875 138.019531 275.523438 135.199219 275.089844 C 132.375 274.65625 129.578125 274.1875 126.800781 273.683594 C 124.023438 273.179688 121.273438 272.640625 118.550781 272.070312 C 115.824219 271.496094 113.128906 270.890625 110.464844 270.25 C 107.800781 269.613281 105.167969 268.941406 102.566406 268.234375 C 99.964844 267.53125 97.398438 266.792969 94.871094 266.023438 C 92.34375 265.253906 89.851562 264.453125 87.398438 263.625 C 84.949219 262.792969 82.539062 261.933594 80.167969 261.042969 C 77.800781 260.148438 75.476562 259.230469 73.199219 258.28125 C 70.917969 257.332031 68.6875 256.355469 66.5 255.351562 C 64.316406 254.347656 62.179688 253.316406 60.097656 252.257812 C 58.011719 251.199219 55.980469 250.117188 54 249.011719 C 52.019531 247.902344 50.09375 246.769531 48.222656 245.613281 C 46.351562 244.457031 44.539062 243.277344 42.78125 242.078125 C 41.023438 240.875 39.328125 239.652344 37.6875 238.410156 C 36.050781 237.167969 34.472656 235.902344 32.957031 234.621094 C 31.441406 233.335938 29.988281 232.035156 28.597656 230.71875 C 27.210938 229.398438 25.882812 228.0625 24.621094 226.710938 C 23.363281 225.359375 22.167969 223.992188 21.039062 222.609375 C 19.910156 221.226562 18.851562 219.832031 17.855469 218.425781 C 16.863281 217.015625 15.9375 215.597656 15.082031 214.164062 C 14.226562 212.734375 13.441406 211.292969 12.722656 209.84375 C 12.007812 208.390625 11.363281 206.933594 10.785156 205.464844 C 10.210938 204 9.707031 202.527344 9.273438 201.046875 C 8.839844 199.566406 8.480469 198.082031 8.191406 196.59375 C 7.902344 195.105469 7.6875 193.613281 7.542969 192.121094 C 7.398438 190.625 7.324219 189.132812 7.324219 187.636719 C 7.324219 186.140625 7.398438 184.644531 7.542969 183.152344 C 7.6875 181.660156 7.902344 180.167969 8.191406 178.679688 C 8.480469 177.191406 8.839844 175.707031 9.273438 174.226562 C 9.707031 172.746094 10.210938 171.273438 10.785156 169.808594 C 11.363281 168.339844 12.007812 166.882812 12.722656 165.429688 C 13.441406 163.980469 14.226562 162.539062 15.082031 161.105469 C 15.9375 159.675781 16.863281 158.257812 17.855469 156.847656 C 18.851562 155.441406 19.910156 154.046875 21.039062 152.664062 C 22.167969 151.28125 23.363281 149.914062 24.621094 148.5625 C 25.882812 147.210938 27.210938 145.875 28.597656 144.554688 C 29.988281 143.238281 31.441406 141.9375 32.957031 140.652344 C 34.472656 139.371094 36.050781 138.105469 37.6875 136.863281 C 39.328125 135.621094 41.023438 134.398438 42.78125 133.195312 C 44.539062 131.996094 46.351562 130.816406 48.222656 129.660156 C 50.09375 128.503906 52.019531 127.371094 54 126.261719 C 55.980469 125.15625 58.011719 124.070312 60.097656 123.015625 C 62.179688 121.957031 64.316406 120.925781 66.5 119.921875 C 68.6875 118.917969 70.917969 117.941406 73.199219 116.992188 C 75.476562 116.042969 77.800781 115.121094 80.167969 114.230469 C 82.539062 113.339844 84.949219 112.480469 87.398438 111.648438 C 89.851562 110.816406 92.34375 110.019531 94.871094 109.25 C 97.398438 108.480469 99.964844 107.742188 102.566406 107.039062 C 105.167969 106.332031 107.800781 105.660156 110.464844 105.019531 C 113.128906 104.382812 115.824219 103.777344 118.550781 103.203125 C 121.273438 102.632812 124.023438 102.09375 126.800781 101.589844 C 129.578125 101.085938 132.375 100.617188 135.199219 100.183594 C 138.019531 99.746094 140.859375 99.347656 143.722656 98.984375 C 146.582031 98.621094 149.457031 98.292969 152.347656 98.003906 C 155.242188 97.710938 158.144531 97.457031 161.0625 97.234375 C 163.980469 97.015625 166.90625 96.832031 169.839844 96.6875 C 172.773438 96.539062 175.714844 96.429688 178.660156 96.355469 C 181.605469 96.285156 184.550781 96.246094 187.5 96.246094 C 190.449219 96.246094 193.394531 96.285156 196.339844 96.355469 C 199.285156 96.429688 202.226562 96.539062 205.160156 96.6875 C 208.09375 96.832031 211.019531 97.015625 213.9375 97.234375 C 216.855469 97.457031 219.757812 97.710938 222.652344 98.003906 C 225.542969 98.292969 228.417969 98.621094 231.277344 98.984375 C 234.140625 99.347656 236.980469 99.746094 239.800781 100.183594 C 242.625 100.617188 245.421875 101.085938 248.199219 101.589844 C 250.976562 102.09375 253.726562 102.632812 256.449219 103.203125 C 259.175781 103.777344 261.871094 104.382812 264.535156 105.019531 C 267.199219 105.660156 269.832031 106.332031 272.433594 107.039062 C 275.035156 107.742188 277.601562 108.480469 280.128906 109.25 C 282.65625 110.019531 285.148438 110.816406 287.601562 111.648438 C 290.050781 112.480469 292.460938 113.339844 294.832031 114.230469 C 297.199219 115.121094 299.523438 116.042969 301.800781 116.992188 C 304.082031 117.941406 306.3125 118.917969 308.5 119.921875 C 310.683594 120.925781 312.820312 121.957031 314.902344 123.015625 C 316.988281 124.070312 319.019531 125.15625 321 126.261719 C 322.980469 127.371094 324.90625 128.503906 326.777344 129.660156 C 328.648438 130.816406 330.460938 131.996094 332.21875 133.195312 C 333.976562 134.398438 335.671875 135.621094 337.3125 136.863281 C 338.949219 138.105469 340.527344 139.371094 342.042969 140.652344 C 343.558594 141.9375 345.011719 143.238281 346.402344 144.554688 C 347.789062 145.875 349.117188 147.210938 350.375 148.5625 C 351.636719 149.914062 352.832031 151.28125 353.960938 152.664062 C 355.089844 154.046875 356.148438 155.441406 357.144531 156.847656 C 358.136719 158.257812 359.0625 159.675781 359.917969 161.105469 C 360.773438 162.539062 361.558594 163.980469 362.277344 165.429688 C 362.992188 166.882812 363.636719 168.339844 364.214844 169.808594 C 364.789062 171.273438 365.292969 172.746094 365.726562 174.226562 C 366.160156 175.707031 366.519531 177.191406 366.808594 178.679688 C 367.097656 180.167969 367.3125 181.660156 367.457031 183.152344 C 367.601562 184.644531 367.675781 186.140625 367.675781 187.636719 Z M 367.675781 187.636719"/><path fill="#FFF" d="M 223.972656 217.269531 L 232.910156 171.207031 C 234.960938 160.792969 233.203125 153.015625 227.929688 148.175781 C 222.800781 143.480469 214.011719 141.136719 201.121094 141.136719 L 185.59375 141.136719 L 189.992188 118.25 C 190.136719 117.371094 189.992188 116.492188 189.40625 115.757812 C 188.820312 115.023438 188.085938 114.730469 187.207031 114.730469 L 165.820312 114.730469 C 164.355469 114.730469 163.183594 115.757812 162.890625 117.078125 L 153.371094 165.925781 C 152.492188 160.351562 150.441406 155.65625 146.925781 151.84375 C 140.625 144.65625 130.8125 140.988281 117.480469 140.988281 L 76.320312 140.988281 C 74.855469 140.988281 73.683594 142.015625 73.390625 143.335938 L 54.199219 242.5 C 54.054688 243.378906 54.199219 244.261719 54.785156 244.992188 C 55.371094 245.726562 56.105469 246.019531 56.984375 246.019531 L 78.515625 246.019531 C 79.980469 246.019531 81.152344 244.992188 81.445312 243.671875 L 86.132812 219.761719 L 102.101562 219.761719 C 110.449219 219.761719 117.628906 218.882812 123.046875 217.121094 C 128.761719 215.214844 133.886719 212.132812 138.429688 207.878906 C 142.089844 204.507812 145.167969 200.691406 147.511719 196.585938 L 143.703125 216.386719 C 143.554688 217.269531 143.703125 218.148438 144.289062 218.882812 C 144.875 219.617188 145.605469 219.910156 146.484375 219.910156 L 167.871094 219.910156 C 169.335938 219.910156 170.507812 218.882812 170.800781 217.5625 L 181.347656 163.285156 L 195.996094 163.285156 C 202.296875 163.285156 204.054688 164.457031 204.640625 165.046875 C 205.078125 165.484375 205.957031 167.246094 204.933594 172.671875 L 196.433594 216.535156 C 196.289062 217.414062 196.433594 218.296875 197.019531 219.027344 C 197.605469 219.761719 198.339844 220.054688 199.21875 220.054688 L 221.191406 220.054688 C 222.507812 219.617188 223.679688 218.589844 223.972656 217.269531 Z M 124.949219 179.128906 C 123.632812 186.023438 121.140625 191.011719 117.480469 193.796875 C 113.816406 196.585938 107.8125 198.050781 99.902344 198.050781 L 90.378906 198.050781 L 97.265625 162.550781 L 109.570312 162.550781 C 118.652344 162.550781 122.3125 164.457031 123.777344 166.074219 C 125.683594 168.417969 126.121094 172.96875 124.949219 179.128906 Z M 124.949219 179.128906"/><path fill="#FFF" d="M 315.378906 151.84375 C 309.082031 144.65625 299.265625 140.988281 285.9375 140.988281 L 244.480469 140.988281 C 243.015625 140.988281 241.84375 142.015625 241.550781 143.335938 L 222.363281 242.351562 C 222.214844 243.234375 222.363281 244.113281 222.949219 244.847656 C 223.535156 245.578125 224.265625 245.875 225.144531 245.875 L 246.679688 245.875 C 248.144531 245.875 249.316406 244.847656 249.609375 243.527344 L 254.296875 219.617188 L 270.261719 219.617188 C 278.613281 219.617188 285.789062 218.734375 291.210938 216.976562 C 296.921875 215.066406 302.050781 211.988281 306.589844 207.734375 C 310.398438 204.210938 313.621094 200.253906 315.964844 195.996094 C 318.308594 191.742188 320.066406 187.050781 321.09375 181.914062 C 323.582031 169.152344 321.679688 159.179688 315.378906 151.84375 Z M 292.96875 179.128906 C 291.648438 186.023438 289.160156 191.011719 285.496094 193.796875 C 281.835938 196.585938 275.828125 198.050781 267.917969 198.050781 L 258.398438 198.050781 L 265.28125 162.550781 L 277.585938 162.550781 C 286.667969 162.550781 290.332031 164.457031 291.796875 166.074219 C 293.847656 168.417969 294.285156 172.96875 292.96875 179.128906 Z M 292.96875 179.128906"/><path fill="#000004" d="M 109.570312 159.617188 C 117.773438 159.617188 123.195312 161.085938 125.976562 164.164062 C 128.757812 167.246094 129.34375 172.378906 127.878906 179.714844 C 126.417969 187.34375 123.488281 192.917969 119.238281 196.144531 C 114.988281 199.371094 108.542969 200.984375 99.902344 200.984375 L 86.867188 200.984375 L 94.921875 159.617188 Z M 57.128906 242.941406 L 78.664062 242.941406 L 83.789062 216.679688 L 102.246094 216.679688 C 110.449219 216.679688 117.039062 215.800781 122.3125 214.042969 C 127.585938 212.28125 132.273438 209.492188 136.667969 205.386719 C 140.332031 202.011719 143.261719 198.34375 145.457031 194.382812 C 147.65625 190.421875 149.265625 186.023438 150.144531 181.183594 C 152.488281 169.445312 150.730469 160.351562 145.019531 153.75 C 139.304688 147.148438 130.222656 143.921875 117.773438 143.921875 L 76.320312 143.921875 Z M 57.128906 242.941406"/><path fill="#000004" d="M 165.964844 117.664062 L 187.351562 117.664062 L 182.226562 143.921875 L 201.269531 143.921875 C 213.28125 143.921875 221.484375 145.976562 226.023438 150.230469 C 230.566406 154.484375 231.882812 161.230469 230.125 170.621094 L 221.191406 216.679688 L 199.511719 216.679688 L 208.007812 172.820312 C 209.03125 167.832031 208.59375 164.457031 206.980469 162.699219 C 205.371094 160.9375 201.707031 159.910156 196.289062 159.910156 L 179.148438 159.910156 L 168.164062 216.679688 L 146.777344 216.679688 Z M 165.964844 117.664062"/><path fill="#000004" d="M 277.585938 159.617188 C 285.789062 159.617188 291.210938 161.085938 293.992188 164.164062 C 296.777344 167.246094 297.363281 172.378906 295.898438 179.714844 C 294.433594 187.34375 291.503906 192.917969 287.253906 196.144531 C 283.007812 199.371094 276.5625 200.984375 267.921875 200.984375 L 254.882812 200.984375 L 262.941406 159.617188 L 277.589844 159.617188 Z M 225.144531 242.941406 L 246.679688 242.941406 L 251.804688 216.679688 L 270.261719 216.679688 C 278.464844 216.679688 285.058594 215.800781 290.332031 214.042969 C 295.605469 212.28125 300.292969 209.492188 304.6875 205.386719 C 308.347656 202.011719 311.277344 198.34375 313.476562 194.382812 C 315.671875 190.421875 317.285156 186.023438 318.164062 181.183594 C 320.507812 169.445312 318.75 160.351562 313.035156 153.75 C 307.324219 147.148438 298.242188 143.921875 285.789062 143.921875 L 244.335938 143.921875 Z M 225.144531 242.941406"/></svg>