<svg xmlns="http://www.w3.org/2000/svg" width="375" viewBox="0 0 375 375" height="375" version="1.0"><path fill="#21759B" d="M 56.25 0 L 318.75 0 C 320.59375 0 322.429688 0.0898438 324.261719 0.269531 C 326.097656 0.453125 327.917969 0.722656 329.722656 1.082031 C 331.53125 1.441406 333.316406 1.886719 335.078125 2.421875 C 336.839844 2.957031 338.574219 3.578125 340.277344 4.28125 C 341.976562 4.988281 343.640625 5.773438 345.265625 6.640625 C 346.890625 7.511719 348.46875 8.457031 350 9.480469 C 351.53125 10.503906 353.011719 11.597656 354.433594 12.769531 C 355.859375 13.9375 357.222656 15.171875 358.523438 16.476562 C 359.828125 17.777344 361.0625 19.140625 362.230469 20.566406 C 363.402344 21.988281 364.496094 23.46875 365.519531 25 C 366.542969 26.53125 367.488281 28.109375 368.359375 29.734375 C 369.226562 31.359375 370.011719 33.023438 370.71875 34.722656 C 371.421875 36.425781 372.042969 38.160156 372.578125 39.921875 C 373.113281 41.683594 373.558594 43.46875 373.917969 45.277344 C 374.277344 47.082031 374.546875 48.902344 374.730469 50.738281 C 374.910156 52.570312 375 54.40625 375 56.25 L 375 318.75 C 375 320.59375 374.910156 322.429688 374.730469 324.261719 C 374.546875 326.097656 374.277344 327.917969 373.917969 329.722656 C 373.558594 331.53125 373.113281 333.316406 372.578125 335.078125 C 372.042969 336.839844 371.421875 338.574219 370.71875 340.277344 C 370.011719 341.976562 369.226562 343.640625 368.359375 345.265625 C 367.488281 346.890625 366.542969 348.46875 365.519531 350 C 364.496094 351.53125 363.402344 353.011719 362.230469 354.433594 C 361.0625 355.859375 359.828125 357.222656 358.523438 358.523438 C 357.222656 359.828125 355.859375 361.0625 354.433594 362.230469 C 353.011719 363.402344 351.53125 364.496094 350 365.519531 C 348.46875 366.542969 346.890625 367.488281 345.265625 368.359375 C 343.640625 369.226562 341.976562 370.011719 340.277344 370.71875 C 338.574219 371.421875 336.839844 372.042969 335.078125 372.578125 C 333.316406 373.113281 331.53125 373.558594 329.722656 373.917969 C 327.917969 374.277344 326.097656 374.546875 324.261719 374.730469 C 322.429688 374.910156 320.59375 375 318.75 375 L 56.25 375 C 54.40625 375 52.570312 374.910156 50.738281 374.730469 C 48.902344 374.546875 47.082031 374.277344 45.277344 373.917969 C 43.46875 373.558594 41.683594 373.113281 39.921875 372.578125 C 38.160156 372.042969 36.425781 371.421875 34.722656 370.71875 C 33.023438 370.011719 31.359375 369.226562 29.734375 368.359375 C 28.109375 367.488281 26.53125 366.542969 25 365.519531 C 23.46875 364.496094 21.988281 363.402344 20.566406 362.230469 C 19.140625 361.0625 17.777344 359.828125 16.476562 358.523438 C 15.171875 357.222656 13.9375 355.859375 12.769531 354.433594 C 11.597656 353.011719 10.503906 351.53125 9.480469 350 C 8.457031 348.46875 7.511719 346.890625 6.640625 345.265625 C 5.773438 343.640625 4.988281 341.976562 4.28125 340.277344 C 3.578125 338.574219 2.957031 336.839844 2.421875 335.078125 C 1.886719 333.316406 1.441406 331.53125 1.082031 329.722656 C 0.722656 327.917969 0.453125 326.097656 0.269531 324.261719 C 0.0898438 322.429688 0 320.59375 0 318.75 L 0 56.25 C 0 54.40625 0.0898438 52.570312 0.269531 50.738281 C 0.453125 48.902344 0.722656 47.082031 1.082031 45.277344 C 1.441406 43.46875 1.886719 41.683594 2.421875 39.921875 C 2.957031 38.160156 3.578125 36.425781 4.28125 34.722656 C 4.988281 33.023438 5.773438 31.359375 6.640625 29.734375 C 7.511719 28.109375 8.457031 26.53125 9.480469 25 C 10.503906 23.46875 11.597656 21.988281 12.769531 20.566406 C 13.9375 19.140625 15.171875 17.777344 16.476562 16.476562 C 17.777344 15.171875 19.140625 13.9375 20.566406 12.769531 C 21.988281 11.597656 23.46875 10.503906 25 9.480469 C 26.53125 8.457031 28.109375 7.511719 29.734375 6.640625 C 31.359375 5.773438 33.023438 4.988281 34.722656 4.28125 C 36.425781 3.578125 38.160156 2.957031 39.921875 2.421875 C 41.683594 1.886719 43.46875 1.441406 45.277344 1.082031 C 47.082031 0.722656 48.902344 0.453125 50.738281 0.269531 C 52.570312 0.0898438 54.40625 0 56.25 0 Z M 56.25 0"/><path transform="scale(.73242)" fill="none" d="M 446.000025 256.000018 C 446.000025 259.109351 445.925358 262.218685 445.770692 265.322685 C 445.616025 268.426685 445.392025 271.530686 445.082692 274.624019 C 444.778692 277.717353 444.400025 280.805353 443.941358 283.877353 C 443.488025 286.954687 442.954691 290.01602 442.346691 293.066687 C 441.744025 296.117354 441.061358 299.152021 440.304025 302.165354 C 439.552025 305.184021 438.720024 308.176021 437.818691 311.152022 C 436.917358 314.128022 435.941358 317.082689 434.896024 320.010689 C 433.845357 322.938689 432.725357 325.834689 431.536024 328.709356 C 430.346691 331.584023 429.088024 334.42669 427.760024 337.237357 C 426.42669 340.048024 425.029357 342.821357 423.56269 345.568024 C 422.101357 348.309358 420.565357 351.013358 418.97069 353.680025 C 417.37069 356.346692 415.70669 358.970692 413.978689 361.557359 C 412.250689 364.144025 410.464022 366.682692 408.608022 369.184026 C 406.757356 371.680026 404.842689 374.133359 402.869355 376.53336 C 400.901355 378.938693 398.869355 381.290693 396.778688 383.594693 C 394.693355 385.898694 392.549355 388.14936 390.352021 390.352027 C 388.149354 392.549361 385.898687 394.693361 383.594687 396.778694 C 381.290687 398.869361 378.938687 400.901361 376.533353 402.869361 C 374.133353 404.842695 371.68002 406.757362 369.18402 408.608029 C 366.682686 410.464029 364.144019 412.250695 361.557352 413.978696 C 358.970686 415.706696 356.346685 417.370696 353.680019 418.970696 C 351.013352 420.565363 348.309351 422.101363 345.568018 423.562696 C 342.821351 425.029363 340.048018 426.426696 337.237351 427.76003 C 334.426684 429.08803 331.584017 430.346697 328.70935 431.53603 C 325.834683 432.725364 322.938683 433.845364 320.010683 434.890697 C 317.082683 435.941364 314.128016 436.917364 311.152016 437.818697 C 308.176015 438.720031 305.184015 439.552031 302.165348 440.304031 C 299.152015 441.061364 296.117348 441.744031 293.066681 442.346698 C 290.016014 442.954698 286.954681 443.488031 283.877347 443.941364 C 280.805347 444.400031 277.717347 444.778698 274.624013 445.082698 C 271.530679 445.392031 268.426679 445.616031 265.322679 445.770698 C 262.218679 445.925364 259.109345 446.000031 256.000012 446.000031 C 252.890678 446.000031 249.781345 445.925364 246.677344 445.770698 C 243.573344 445.616031 240.469344 445.392031 237.37601 445.082698 C 234.282677 444.778698 231.194677 444.400031 228.122676 443.941364 C 225.045343 443.488031 221.984009 442.954698 218.933342 442.346698 C 215.882676 441.744031 212.848009 441.061364 209.834675 440.304031 C 206.816008 439.552031 203.824008 438.720031 200.848008 437.818697 C 197.872008 436.917364 194.917341 435.941364 191.989341 434.89603 C 189.06134 433.845364 186.16534 432.725364 183.290673 431.53603 C 180.416006 430.346697 177.57334 429.08803 174.762673 427.76003 C 171.952006 426.426696 169.178672 425.029363 166.432005 423.562696 C 163.690672 422.101363 160.986672 420.565363 158.320005 418.970696 C 155.653338 417.370696 153.029338 415.706696 150.442671 413.978696 C 147.856004 412.250695 145.317337 410.464029 142.816004 408.608029 C 140.320004 406.757362 137.86667 404.842695 135.46667 402.869361 C 133.061336 400.901361 130.709336 398.869361 128.405336 396.778694 C 126.101336 394.693361 123.850669 392.549361 121.648002 390.352027 C 119.450669 388.14936 117.306669 385.898694 115.221335 383.594693 C 113.130668 381.290693 111.098668 378.938693 109.130668 376.53336 C 107.157335 374.133359 105.242668 371.680026 103.392001 369.184026 C 101.536001 366.682692 99.749334 364.144025 98.021334 361.557359 C 96.293334 358.970692 94.629334 356.346692 93.029334 353.680025 C 91.434667 351.013358 89.898667 348.309358 88.437333 345.568024 C 86.970667 342.821357 85.573333 340.048024 84.24 337.237357 C 82.912 334.42669 81.653333 331.584023 80.463999 328.709356 C 79.274666 325.834689 78.154666 322.938689 77.103999 320.010689 C 76.058666 317.082689 75.082666 314.128022 74.181332 311.152022 C 73.279999 308.176021 72.447999 305.184021 71.695999 302.165354 C 70.938665 299.152021 70.255999 296.117354 69.653332 293.066687 C 69.045332 290.01602 68.511999 286.954687 68.058665 283.877353 C 67.599999 280.805353 67.221332 277.717353 66.917332 274.624019 C 66.607999 271.530686 66.383998 268.426685 66.229332 265.322685 C 66.074665 262.218685 65.999998 259.109351 65.999998 256.000018 C 65.999998 252.890684 66.074665 249.781351 66.229332 246.677351 C 66.383998 243.57335 66.607999 240.46935 66.917332 237.376017 C 67.221332 234.282683 67.599999 231.194683 68.058665 228.122683 C 68.511999 225.045349 69.045332 221.984015 69.653332 218.933349 C 70.255999 215.882682 70.938665 212.848015 71.695999 209.834681 C 72.447999 206.816014 73.279999 203.824014 74.181332 200.848014 C 75.082666 197.872014 76.058666 194.917347 77.103999 191.989347 C 78.154666 189.061347 79.274666 186.165346 80.463999 183.290679 C 81.653333 180.416013 82.912 177.573346 84.24 174.762679 C 85.573333 171.952012 86.970667 169.178678 88.437333 166.432012 C 89.898667 163.690678 91.434667 160.986678 93.029334 158.320011 C 94.629334 155.653344 96.293334 153.029344 98.021334 150.442677 C 99.749334 147.85601 101.536001 145.317343 103.392001 142.81601 C 105.242668 140.32001 107.157335 137.866676 109.130668 135.466676 C 111.098668 133.061343 113.130668 130.709342 115.221335 128.405342 C 117.306669 126.101342 119.450669 123.850675 121.648002 121.648008 C 123.850669 119.450675 126.101336 117.306675 128.405336 115.221341 C 130.709336 113.130675 133.061336 111.098674 135.46667 109.130674 C 137.86667 107.157341 140.320004 105.242674 142.816004 103.392007 C 145.317337 101.536007 147.856004 99.74934 150.442671 98.02134 C 153.029338 96.29334 155.653338 94.62934 158.320005 93.02934 C 160.986672 91.434673 163.690672 89.898673 166.432005 88.43734 C 169.178672 86.970673 171.952006 85.573339 174.762673 84.240006 C 177.57334 82.912006 180.416006 81.653339 183.290673 80.464006 C 186.16534 79.274672 189.06134 78.154672 191.989341 77.104005 C 194.917341 76.058672 197.872008 75.082672 200.848008 74.181339 C 203.824008 73.280005 206.816008 72.448005 209.834675 71.696005 C 212.848009 70.938672 215.882676 70.256005 218.933342 69.653338 C 221.984009 69.045338 225.045343 68.512005 228.122676 68.058671 C 231.194677 67.600005 234.282677 67.221338 237.37601 66.917338 C 240.469344 66.608005 243.573344 66.384005 246.677344 66.229338 C 249.781345 66.074671 252.890678 66.000005 256.000012 66.000005 C 259.109345 66.000005 262.218679 66.074671 265.322679 66.229338 C 268.426679 66.384005 271.530679 66.608005 274.624013 66.917338 C 277.717347 67.221338 280.805347 67.600005 283.877347 68.058671 C 286.954681 68.512005 290.016014 69.045338 293.066681 69.653338 C 296.117348 70.256005 299.152015 70.938672 302.165348 71.696005 C 305.184015 72.448005 308.176015 73.280005 311.152016 74.181339 C 314.128016 75.082672 317.082683 76.058672 320.010683 77.104005 C 322.938683 78.154672 325.834683 79.274672 328.70935 80.464006 C 331.584017 81.653339 334.426684 82.912006 337.237351 84.240006 C 340.048018 85.573339 342.821351 86.970673 345.568018 88.43734 C 348.309351 89.898673 351.013352 91.434673 353.680019 93.02934 C 356.346685 94.62934 358.970686 96.29334 361.557352 98.02134 C 364.144019 99.74934 366.682686 101.536007 369.18402 103.392007 C 371.68002 105.242674 374.133353 107.157341 376.533353 109.130674 C 378.938687 111.098674 381.290687 113.130675 383.594687 115.221341 C 385.898687 117.306675 388.149354 119.450675 390.352021 121.648008 C 392.549355 123.850675 394.693355 126.101342 396.778688 128.405342 C 398.869355 130.709342 400.901355 133.061343 402.869355 135.466676 C 404.842689 137.866676 406.757356 140.32001 408.608022 142.81601 C 410.464022 145.317343 412.250689 147.85601 413.978689 150.442677 C 415.70669 153.029344 417.37069 155.653344 418.97069 158.320011 C 420.565357 160.986678 422.101357 163.690678 423.56269 166.432012 C 425.029357 169.178678 426.42669 171.952012 427.760024 174.762679 C 429.088024 177.573346 430.346691 180.416013 431.536024 183.290679 C 432.725357 186.165346 433.845357 189.061347 434.890691 191.989347 C 435.941358 194.917347 436.917358 197.872014 437.818691 200.848014 C 438.720024 203.824014 439.552025 206.816014 440.304025 209.834681 C 441.061358 212.848015 441.744025 215.882682 442.346691 218.933349 C 442.954691 221.984015 443.488025 225.045349 443.941358 228.122683 C 444.400025 231.194683 444.778692 234.282683 445.082692 237.376017 C 445.392025 240.46935 445.616025 243.57335 445.770692 246.677351 C 445.925358 249.781351 446.000025 252.890684 446.000025 256.000018 Z M 446.000025 256.000018" stroke="#FFF" stroke-width="20"/><path fill="#FFF" d="M 149.414062 319.335938 L 190.429688 199.21875 L 232.910156 315.671875 L 254.148438 303.953125 L 295.164062 185.300781 C 302.488281 166.257812 304.6875 150.878906 304.6875 137.695312 C 305.417969 113.523438 295.164062 92.285156 277.585938 90.085938 C 261.472656 88.621094 252.683594 104.003906 253.417969 113.523438 C 254.882812 135.496094 276.855469 147.949219 276.855469 177.976562 C 276.855469 199.949219 262.9375 234.375 253.417969 267.332031 L 205.808594 125.242188 C 213.867188 124.511719 221.191406 124.511719 221.191406 124.511719 C 228.515625 123.777344 227.78125 112.792969 220.457031 113.523438 C 196.289062 115.722656 174.316406 114.988281 150.144531 113.523438 C 142.820312 112.792969 142.089844 123.777344 149.414062 124.511719 C 149.414062 124.511719 156.003906 124.511719 163.328125 125.242188 L 183.835938 181.640625 L 154.539062 268.796875 L 106.933594 125.242188 C 114.988281 124.511719 121.582031 124.511719 121.582031 124.511719 C 128.90625 123.777344 128.171875 112.792969 120.847656 113.523438 C 98.875 114.988281 77.636719 116.453125 72.507812 112.792969 L 65.917969 131.101562 L 130.371094 309.082031 Z M 149.414062 319.335938"/></svg>